<svg xmlns="http://www.w3.org/2000/svg" xmlns:xlink="http://www.w3.org/1999/xlink" viewBox="0 0 409.18 415.18"><defs><style>.cls-1{fill:#dcdeed;}.cls-2{fill:none;}.cls-3{fill:#2744ac;}.cls-4{fill:#f88;}.cls-5{fill:#f0f3f9;}.cls-6{fill:url(#linear-gradient);}.cls-7{fill:#ffb200;}.cls-8{fill:#b5b9dc;}.cls-9{isolation:isolate;}.cls-10,.cls-33{fill:#19f7fb;}.cls-10{opacity:0.1;}.cls-11{mix-blend-mode:overlay;}.cls-12{fill:#fdfdfd;}.cls-13{fill:#f5f5fd;}.cls-14{fill:#f3e7e0;}.cls-15{fill:#f2eae6;}.cls-16{fill:#cdd1f6;}.cls-17{fill:url(#linear-gradient-2);}.cls-18{fill:#b6ccdf;}.cls-18,.cls-46{opacity:0.3;}.cls-18,.cls-90{mix-blend-mode:screen;}.cls-19{fill:#ededed;}.cls-20{clip-path:url(#clip-path);}.cls-21{fill:url(#linear-gradient-3);}.cls-22{fill:#119ced;}.cls-23{fill:#12a4ee;}.cls-24{fill:#12adf0;}.cls-25{fill:#13b5f1;}.cls-26{fill:#14bdf2;}.cls-27{fill:#15c5f3;}.cls-28{fill:#15cef5;}.cls-29{fill:#16d6f6;}.cls-30{fill:#17def7;}.cls-31{fill:#18e6f8;}.cls-32{fill:#18effa;}.cls-34{clip-path:url(#clip-path-2);}.cls-35{clip-path:url(#clip-path-3);}.cls-36{fill:url(#linear-gradient-4);}.cls-37{clip-path:url(#clip-path-4);}.cls-38{clip-path:url(#clip-path-5);}.cls-39{clip-path:url(#clip-path-6);}.cls-40{clip-path:url(#clip-path-7);}.cls-41{clip-path:url(#clip-path-8);}.cls-42{fill:#f5c2a6;}.cls-43{fill:#cc963e;}.cls-44{fill:#171716;}.cls-45{fill:#1b1823;}.cls-46{fill:#123f5d;}.cls-46,.cls-82,.cls-84{mix-blend-mode:multiply;}.cls-47{fill:#393244;}.cls-48{fill:#085fd5;}.cls-49{fill:#ffd6bf;}.cls-50{fill:#ffdfcd;}.cls-51{fill:#bfbfbf;}.cls-52{fill:#f8f9fc;}.cls-53{fill:#21212b;}.cls-54{fill:#303030;}.cls-55{fill:#404040;}.cls-56{fill:#ebebeb;}.cls-57{clip-path:url(#clip-path-9);}.cls-58{clip-path:url(#clip-path-10);}.cls-59{fill:#f1f5fa;}.cls-60{clip-path:url(#clip-path-11);}.cls-61{clip-path:url(#clip-path-12);}.cls-62{clip-path:url(#clip-path-13);}.cls-63{clip-path:url(#clip-path-14);}.cls-64{clip-path:url(#clip-path-15);}.cls-65{clip-path:url(#clip-path-16);}.cls-66{clip-path:url(#clip-path-17);}.cls-67{clip-path:url(#clip-path-18);}.cls-68{clip-path:url(#clip-path-19);}.cls-69{clip-path:url(#clip-path-20);}.cls-70{clip-path:url(#clip-path-21);}.cls-71{clip-path:url(#clip-path-22);}.cls-72{fill:#ff5454;}.cls-73{clip-path:url(#clip-path-23);}.cls-74{clip-path:url(#clip-path-24);}.cls-75{fill:url(#linear-gradient-6);}.cls-76{fill:#141e30;}.cls-77{fill:url(#linear-gradient-7);}.cls-78{clip-path:url(#clip-path-25);}.cls-79{clip-path:url(#clip-path-26);}.cls-80{clip-path:url(#clip-path-27);}.cls-81{fill:#ffd100;}.cls-82{fill:#243b55;}.cls-82,.cls-84,.cls-90{opacity:0.2;}.cls-83{opacity:0.8;}.cls-84{fill:#1f0159;}.cls-85{fill:url(#linear-gradient-9);}.cls-86{fill:url(#linear-gradient-10);}.cls-87{fill:url(#linear-gradient-11);}.cls-88{fill:url(#linear-gradient-12);}.cls-89{fill:#ebb091;}.cls-90{fill:#bf66a4;}.cls-91{fill:#f02031;}.cls-92{fill:#995033;}.cls-93{fill:#66311c;}.cls-94{fill:#951616;}.cls-95{fill:#a1afc4;}</style><linearGradient id="linear-gradient" x1="-16939.56" y1="234.31" x2="-16926.09" y2="234.31" gradientTransform="matrix(-1, 0, 0, 1, -16850.96, 0)" gradientUnits="userSpaceOnUse"><stop offset="0.01" stop-color="#e4e9f2"/><stop offset="1" stop-color="#b4c2da"/></linearGradient><linearGradient id="linear-gradient-2" x1="101.5" y1="148.21" x2="277.6" y2="192.1" gradientUnits="userSpaceOnUse"><stop offset="0" stop-color="#21deff"/><stop offset="1" stop-color="#0ab4ef"/></linearGradient><clipPath id="clip-path"><path class="cls-1" d="M375.06,299.47v5.46c0,9.95-6.57,19.89-19.63,27.48-26.3,15.29-69.08,15.29-95.55,0-13.33-7.69-20-17.79-19.95-27.87v-5.46c0,10.08,6.63,20.18,20,27.87,26.47,15.29,69.25,15.29,95.55,0C368.49,319.36,375,309.42,375.06,299.47Z"/></clipPath><linearGradient id="linear-gradient-3" x1="275.32" y1="281.4" x2="334.45" y2="317.64" xlink:href="#linear-gradient-2"/><clipPath id="clip-path-2"><path class="cls-1" d="M373.63,254.69l-.15,41.37c0,9.71-6.42,19.42-19.18,26.83-25.68,14.93-67.46,14.93-93.31,0-13-7.51-19.51-17.37-19.48-27.21l.16-41.37c0,9.85,6.47,19.71,19.48,27.22,25.85,14.92,67.63,14.92,93.31,0C367.22,274.11,373.61,264.41,373.63,254.69Z"/></clipPath><clipPath id="clip-path-3"><path class="cls-1" d="M373.47,241.93v5.34c0,9.71-6.42,19.42-19.18,26.83C328.62,289,286.84,289,261,274.1c-13-7.51-19.51-17.37-19.48-27.21v-5.34c0,9.85,6.47,19.71,19.48,27.22,25.85,14.93,67.62,14.93,93.31,0C367.06,261.35,373.44,251.65,373.47,241.93Z"/></clipPath><linearGradient id="linear-gradient-4" x1="276.07" y1="224.29" x2="333.81" y2="259.68" xlink:href="#linear-gradient-2"/><clipPath id="clip-path-4"><path class="cls-1" d="M353,290.11l3.41,2c-2.25-1.31-5.36-1.12-8.8.86l-3.41-2C347.67,289,350.78,288.8,353,290.11Z"/></clipPath><clipPath id="clip-path-5"><path class="cls-1" d="M338.92,322.22l-3.41-2c-2.22-1.29-3.59-4-3.6-7.93,0-7.85,5.49-17.4,12.32-21.34l3.41,2c-6.83,3.94-12.35,13.5-12.32,21.34C335.33,318.19,336.7,320.93,338.92,322.22Z"/></clipPath><clipPath id="clip-path-6"><path class="cls-8" d="M404.67,73.13l-4.61-2.67a3.2,3.2,0,0,0-3.22.31l4.6,2.68A3.22,3.22,0,0,1,404.67,73.13Z"/></clipPath><clipPath id="clip-path-7"><path class="cls-8" d="M333.55,152.05l4.6,2.68a3.16,3.16,0,0,1-1.32-2.9l-4.6-2.68A3.13,3.13,0,0,0,333.55,152.05Z"/></clipPath><clipPath id="clip-path-8"><path class="cls-8" d="M341.25,108.2l-4.61-2.67a10,10,0,0,0-4.52,7.83l4.61,2.67A10,10,0,0,1,341.25,108.2Z"/></clipPath><clipPath id="clip-path-9"><path class="cls-2" d="M131.27,46.09l5.31,3.09a3.64,3.64,0,0,0-3.67.35l-5.3-3.08A3.6,3.6,0,0,1,131.27,46.09Z"/></clipPath><clipPath id="clip-path-10"><path class="cls-2" d="M129.28,61.75,124,58.66a3.62,3.62,0,0,1-1.5-3.31,11.31,11.31,0,0,1,5.14-8.9l5.3,3.08a11.36,11.36,0,0,0-5.13,8.91A3.61,3.61,0,0,0,129.28,61.75Z"/></clipPath><clipPath id="clip-path-11"><path class="cls-2" d="M133,37.65l-5.31-3.09a16.12,16.12,0,0,1,6.55-2.24,8.87,8.87,0,0,1,5.33,1.1l5.31,3.09a8.81,8.81,0,0,0-5.33-1.1A15.88,15.88,0,0,0,133,37.65Z"/></clipPath><clipPath id="clip-path-12"><path class="cls-2" d="M121.21,56l-5.3-3.09c-1.41-.78-1.43-3.36-.06-5.77a39.26,39.26,0,0,1,5.31-7.26,28.84,28.84,0,0,1,6.53-5.32L133,37.65A29.11,29.11,0,0,0,126.46,43a39,39,0,0,0-5.3,7.26C119.78,52.64,119.81,55.22,121.21,56Z"/></clipPath><clipPath id="clip-path-13"><path class="cls-2" d="M133,24.6l-5.3-3.09a26.92,26.92,0,0,1,11-3.77,14.94,14.94,0,0,1,8.94,1.81l5.31,3.09a14.86,14.86,0,0,0-8.94-1.81A27,27,0,0,0,133,24.6Z"/></clipPath><clipPath id="clip-path-14"><path class="cls-2" d="M132.93,11.58l-5.31-3.09a37.41,37.41,0,0,1,15.13-5.21,20.72,20.72,0,0,1,12.36,2.48l5.3,3.09a20.6,20.6,0,0,0-12.35-2.48A37.21,37.21,0,0,0,132.93,11.58Z"/></clipPath><clipPath id="clip-path-15"><path class="cls-2" d="M113.16,51.4l-5.31-3.09c-1.4-.78-1.42-3.37,0-5.78a65.5,65.5,0,0,1,8.91-12.13,48.16,48.16,0,0,1,10.94-8.89L133,24.6A48.6,48.6,0,0,0,122,33.49a65.12,65.12,0,0,0-8.9,12.13C111.74,48,111.76,50.62,113.16,51.4Z"/></clipPath><clipPath id="clip-path-16"><path class="cls-2" d="M105.55,46.38l-5.31-3.09c-1.4-.79-1.41-3.38,0-5.78a90.76,90.76,0,0,1,12.3-16.74A67.14,67.14,0,0,1,127.62,8.49l5.31,3.09a67.14,67.14,0,0,0-15.11,12.27A90.88,90.88,0,0,0,105.51,40.6C104.13,43,104.15,45.59,105.55,46.38Z"/></clipPath><clipPath id="clip-path-17"><path class="cls-3" d="M337.63,2.43,333.87.25a2.59,2.59,0,0,0-2.63.26L335,2.69A2.62,2.62,0,0,1,337.63,2.43Z"/></clipPath><clipPath id="clip-path-18"><path class="cls-3" d="M279.57,66.86l3.76,2.19a2.62,2.62,0,0,1-1.08-2.37l-3.76-2.19A2.61,2.61,0,0,0,279.57,66.86Z"/></clipPath><clipPath id="clip-path-19"><path class="cls-3" d="M285.86,31.06l-3.76-2.18a8.13,8.13,0,0,0-3.69,6.39l3.76,2.19A8.15,8.15,0,0,1,285.86,31.06Z"/></clipPath><clipPath id="clip-path-20"><path class="cls-4" d="M357.33,71.62l-4-2.31a2.73,2.73,0,0,0-2.78.27l4,2.31A2.8,2.8,0,0,1,357.33,71.62Z"/></clipPath><clipPath id="clip-path-21"><path class="cls-4" d="M295.81,139.9l4,2.31a2.75,2.75,0,0,1-1.14-2.52l-4-2.31A2.78,2.78,0,0,0,295.81,139.9Z"/></clipPath><clipPath id="clip-path-22"><path class="cls-4" d="M302.47,102l-4-2.32a8.63,8.63,0,0,0-3.9,6.77l4,2.32A8.59,8.59,0,0,1,302.47,102Z"/></clipPath><clipPath id="clip-path-23"><path class="cls-5" d="M142.78,193.18l8,4.65a3.85,3.85,0,0,0-3.91.37l-8-4.65A3.87,3.87,0,0,1,142.78,193.18Z"/></clipPath><clipPath id="clip-path-24"><path class="cls-6" d="M83.12,241.39l-8-4.65a12.13,12.13,0,0,1,5.47-9.5l8,4.65A12.17,12.17,0,0,0,83.12,241.39Z"/></clipPath><linearGradient id="linear-gradient-6" x1="-17003.68" y1="292.12" x2="-16934.1" y2="292.12" gradientTransform="matrix(-1, 0, 0, 1, -16850.96, 0)" gradientUnits="userSpaceOnUse"><stop offset="0" stop-color="#21deff"/><stop offset="0.29" stop-color="#1ad2fa"/><stop offset="1" stop-color="#0ab4ef"/></linearGradient><linearGradient id="linear-gradient-7" x1="-16869.9" y1="264.44" x2="-16871.44" y2="265.6" gradientTransform="matrix(-1, 0, 0, 1, -16850.96, 0)" gradientUnits="userSpaceOnUse"><stop offset="0" stop-color="#148a9e"/><stop offset="1" stop-color="#087dc2"/></linearGradient><clipPath id="clip-path-25"><path class="cls-7" d="M76.32,214.23l-4.84-2.82a3.38,3.38,0,0,0-3.39.33l4.84,2.82A3.33,3.33,0,0,1,76.32,214.23Z"/></clipPath><clipPath id="clip-path-26"><path class="cls-7" d="M1.5,297.26l4.84,2.82A3.37,3.37,0,0,1,5,297L.11,294.2A3.33,3.33,0,0,0,1.5,297.26Z"/></clipPath><clipPath id="clip-path-27"><path class="cls-7" d="M9.6,251.12l-4.85-2.81A10.48,10.48,0,0,0,0,256.54l4.85,2.82A10.46,10.46,0,0,1,9.6,251.12Z"/></clipPath><linearGradient id="linear-gradient-9" x1="212.31" y1="298.61" x2="213.88" y2="276.3" gradientUnits="userSpaceOnUse"><stop offset="0" stop-color="#4568dc"/><stop offset="0.29" stop-color="#426fde"/><stop offset="0.72" stop-color="#3b83e2"/><stop offset="1" stop-color="#3494e6"/></linearGradient><linearGradient id="linear-gradient-10" x1="243.58" y1="327.04" x2="244.29" y2="300" xlink:href="#linear-gradient-9"/><linearGradient id="linear-gradient-11" x1="243.49" y1="361.96" x2="244.35" y2="340.21" xlink:href="#linear-gradient-9"/><linearGradient id="linear-gradient-12" x1="214.59" y1="332.94" x2="214.87" y2="310.2" xlink:href="#linear-gradient-9"/></defs><title>Asset 10header</title><g class="cls-9"><g id="Layer_2" data-name="Layer 2"><g id="Header_Image" data-name="Header Image"><ellipse class="cls-10" cx="215.75" cy="303.5" rx="193.44" ry="111.68"/><g class="cls-11"><path class="cls-12" d="M267,392.31a.48.48,0,0,1-.26-.07L161.93,331.75a.53.53,0,0,1,.53-.91l104.76,60.49a.53.53,0,0,1-.26,1Z"/><path class="cls-12" d="M379.2,343.08a.59.59,0,0,1-.26-.07l-83.59-48.27a.52.52,0,0,1,.52-.91l83.6,48.27a.52.52,0,0,1,.19.71A.54.54,0,0,1,379.2,343.08Z"/><path class="cls-12" d="M183.6,399a.48.48,0,0,1-.26-.07L98,349.61a.52.52,0,0,1,.52-.91L183.86,398a.52.52,0,0,1-.26,1Z"/><path class="cls-12" d="M214.69,301.51a.48.48,0,0,1-.26-.07l-45.29-26.15a.53.53,0,0,1-.19-.72.51.51,0,0,1,.71-.19L215,300.53a.52.52,0,0,1,.2.71A.54.54,0,0,1,214.69,301.51Z"/><path class="cls-12" d="M267,392.31a.55.55,0,0,1-.46-.26.53.53,0,0,1,.2-.72L319.17,361a.52.52,0,0,1,.52.91l-52.47,30.3A.48.48,0,0,1,267,392.31Z"/><path class="cls-12" d="M211.58,360.11a.53.53,0,0,1-.27-1l70.6-40.76a.53.53,0,0,1,.72.19.53.53,0,0,1-.19.72L211.84,360A.48.48,0,0,1,211.58,360.11Z"/><path class="cls-12" d="M183.6,399a.53.53,0,0,1-.26-1l47-27.14a.53.53,0,0,1,.72.19.53.53,0,0,1-.19.72l-47,27.14A.48.48,0,0,1,183.6,399Z"/><path class="cls-12" d="M162.19,331.82a.53.53,0,0,1-.26-1l52.5-30.31a.53.53,0,0,1,.72.19.54.54,0,0,1-.2.72l-52.49,30.31A.54.54,0,0,1,162.19,331.82Z"/><path class="cls-13" d="M125.56,386.41a9.07,9.07,0,0,0-8.24,0c-2.28,1.31-2.28,3.44,0,4.76a9.13,9.13,0,0,0,8.24,0C127.84,389.85,127.84,387.72,125.56,386.41Z"/><path class="cls-13" d="M383.32,340.17a9.13,9.13,0,0,0-8.24,0c-2.27,1.32-2.27,3.45,0,4.76a9.13,9.13,0,0,0,8.24,0C385.6,343.62,385.6,341.49,383.32,340.17Z"/><path class="cls-13" d="M323.55,358.85a9.13,9.13,0,0,0-8.24,0c-2.28,1.32-2.28,3.45,0,4.76a9.13,9.13,0,0,0,8.24,0C325.83,362.3,325.83,360.17,323.55,358.85Z"/><path class="cls-12" d="M172.62,274a.54.54,0,0,1-.46-.27.53.53,0,0,1,.2-.72l52.47-30.29a.52.52,0,0,1,.52.91L172.88,274A.59.59,0,0,1,172.62,274Z"/><path class="cls-12" d="M120.56,389.82a.53.53,0,0,1-.27-1l23.37-13.49a.53.53,0,0,1,.72.19.52.52,0,0,1-.19.72l-23.37,13.49A.48.48,0,0,1,120.56,389.82Z"/><path class="cls-13" d="M229.21,240.56a9.13,9.13,0,0,0-8.24,0c-2.28,1.31-2.28,3.44,0,4.76a9.13,9.13,0,0,0,8.24,0C231.48,244,231.48,241.87,229.21,240.56Z"/></g><path class="cls-8" d="M148.72,295.61l-8.29-6.93A20.66,20.66,0,0,1,133,272.79V217.46h2.63v55.33a18,18,0,0,0,6.48,13.87l9.29,7.81Z"/><polygon class="cls-14" points="162.11 304.32 162.07 304.32 162.07 306.16 148.73 295.61 148.65 295.54 150.01 294.75 150.27 294.97 162.11 304.32"/><polygon class="cls-8" points="162.11 304.32 162.07 304.32 162.07 306.16 148.73 295.61 148.65 295.54 148.65 293.65 149.56 294.37 150.01 294.75 150.27 294.97 162.11 304.32"/><path class="cls-13" d="M228.64,266.25l-66.53,38.07L150.27,295l-.26-.22-.45-.38h-.12l-.79-.68-7.46-6.25-.26-.23a17.76,17.76,0,0,1-6.48-13.64V219.94l1.2-.64L177,196.42,191.74,183h2.64v55.32a7.71,7.71,0,0,0,0,1,17.86,17.86,0,0,0,6.44,12.89,7.64,7.64,0,0,0,.91.64C205.5,255.28,216.77,260.71,228.64,266.25Z"/><path class="cls-8" d="M194.42,239.3l-60,34.27V223.94c4.22-4.15,7.34-6.94,7.76-6.48,1,1.16,39.24-9.47,52.17-11.25v32.11A7.71,7.71,0,0,0,194.42,239.3Z"/><polygon class="cls-15" points="162.11 304.32 228.64 266.25 228.64 268.13 162.07 306.16 162.11 304.32"/><path class="cls-16" d="M201.77,252.83l-60.58,34.61-.26-.23a17.76,17.76,0,0,1-6.48-13.64l60-34.27a17.86,17.86,0,0,0,6.44,12.89A7.64,7.64,0,0,0,201.77,252.83Z"/><path class="cls-8" d="M267.92,22l-1.45.28h0l-3,.59q.09.48.18,1a19.55,19.55,0,0,1,.18,2.73l-.3,31.54-.73,107.59c-.06,8.4-5.24,18.13-11.57,21.73L57.77,298.73l-.33.17,1.48,5.38-6.58-3.86c-2.18-1.27-3.64-4-3.92-7.85,0-.48,0-1,0-1.47l1-138.89V152a28.87,28.87,0,0,1,6.11-16.81A19.32,19.32,0,0,1,61,130.24L254.41,18.93c2.77-1.57,5.28-1.68,7.24-.66v0l5.46,3.24Z"/><path class="cls-13" d="M267.11,21.49l-.64.75h0l-2.82,1.58L62.16,138.3l-6.62-3.14A19.32,19.32,0,0,1,61,130.24L254.41,18.93c2.77-1.57,5.28-1.68,7.24-.66v0Z"/><path class="cls-8" d="M70.63,142.47l-7.2,17.7-14-8V152a28.87,28.87,0,0,1,6.11-16.81Z"/><path class="cls-5" d="M272,31.3l-.14,13.88v0l-.16,17.65-.74,107.58c-.05,8.39-5.24,18.13-11.6,21.74l-70.83,40.17-76.12,43.13-1.77,1.06L65.92,303.47c-5.18,2.95-9.5.88-10.91-4.58a15.49,15.49,0,0,1-.41-2.66c0-.49,0-1,0-1.48l.11-15.83.3-40.79.6-82.5c.07-8.42,5.27-18.15,11.6-21.74L147,88.66l.16-.09,27.29-16.2L209,51.82h0l40-22.68,11.57-6.56c4.23-2.39,7.89-1.45,9.87,1.93A13.8,13.8,0,0,1,272,31.3Z"/><path class="cls-17" d="M264.25,33.64v141.7c-39.42,23-39.52,23.08-124.9,73-22.2,13,2.81-1.64-77.32,45.17V151.81C174.67,86,229.72,53.82,262.82,34.5Z"/><polygon class="cls-8" points="261.36 35.3 261.36 173.77 62.02 290.27 62.02 293.51 264.24 175.34 264.24 33.64 261.36 35.3"/><polygon class="cls-13" points="62.02 293.51 264.24 175.34 261.36 173.77 62.02 290.27 62.02 293.51"/><polygon class="cls-18" points="138.74 106.97 62.03 239.88 62.03 201.75 105.57 126.35 107.44 125.25 115.43 120.6 121.51 117.05 134.75 109.31 138.74 106.97"/><polygon class="cls-18" points="262.82 34.5 139.35 248.33 122.95 257.92 122.19 258.36 62.03 293.5 62.03 286.32 179.24 83.29 183.5 80.81 184.38 80.3 185.47 79.67 187.78 78.3 191.51 76.14 193.28 75.09 262.82 34.5"/><path class="cls-19" d="M157.49,124.49c-5.43,1.3-10.9,2.42-16.26,4a37.12,37.12,0,0,0-14.46,7.49,21.73,21.73,0,0,0-4,4.57c-2.67,4.22-2.18,6.46,1.83,9.68,1-.74,2-1.5,3-2.24,5.94-4.31,12.88-6,19.91-7.19a106.82,106.82,0,0,1,47.08,2c7.55,2.08,10.85,4.18,17.54,10.83a6.15,6.15,0,0,0,1.42-7.6,20.44,20.44,0,0,0-3.95-5.07c-7.23-6.8-16.16-9.56-25.8-10.61-13.52-1.47-26.93-.4-40.4,1.16,1.69-.47,3.37-1,5.07-1.39s3.6-.81,5.42-1.1c15.74-2.48,31.32-2,46.59,2.9A37.07,37.07,0,0,1,213.87,139c6.58,5.77,6.54,12.73-.14,18.39-4.87,4.12-10.65,6.41-16.7,8.06-3.67,1-7.41,1.71-11.39,2.62a29.54,29.54,0,0,0,5.89,8.57c2.41,2.43,5,4.68,7.51,7-2.33,1.26-4.36,1.41-6.7-.65-6-5.26-11-11.14-12.84-18.57-4.74,0-9.24,0-13.74,0-10.31-.09-20.41-1.43-30.12-5.07a34.15,34.15,0,0,1-12.22-7.24c-5.27-5.13-5.32-11.21-.13-16.43a32.19,32.19,0,0,1,10.94-6.81,76.74,76.74,0,0,1,21.27-5,10.29,10.29,0,0,1,2.19.25Zm27.63,42.65,17.61-6.49a57.33,57.33,0,0,0-3.89-4.8,27,27,0,0,0-10.31-6,66.24,66.24,0,0,0-30.66-3c-6.92.85-13.62,2.57-19.62,6.33-1.31.82-2.5,1.85-4.12,3.06,16.36,6.45,32.86,7.43,49.54,5.79C184.16,163.78,184.59,165.28,185.12,167.14Zm24.12-10.57c-1.11-1.51-2-2.91-3.07-4.11-3.33-3.66-7.59-6-12.14-7.69-12.47-4.78-25.38-5.6-38.51-4-8.15,1-16,3.13-23,7.54-1.8,1.13-3.39,2.59-5.25,4,1,.63,1.63,1,2.22,1.46,1.28,1,2.24.85,3.65-.12a33,33,0,0,1,8-4.32c13.71-4.51,27.73-4.88,41.87-2.46,5.65,1,11.3,2.18,16,5.67,2.41,1.78,4.51,4,6.87,6.12Z"/><path class="cls-19" d="M169.93,188.41c-.19-2-.46-3.73-.49-5.44a3.65,3.65,0,0,1,3.31-3.78,3.8,3.8,0,0,1,4.26,3c.34,1.86.45,3.76.69,5.87Z"/><path class="cls-19" d="M155.28,187.72l-6.37-1c0-1.82-.07-3.52,0-5.22a3.17,3.17,0,1,1,6.33,0C155.37,183.43,155.28,185.39,155.28,187.72Z"/><path class="cls-19" d="M139.88,184.36c-1.8-.71-3.22-1.26-4.62-1.83a1.8,1.8,0,0,1-.78-.51c-.76-1-.66-6.71.27-7.55.58-.53,1.82-1.12,2.25-.85a4.68,4.68,0,0,1,2.16,2.59A80,80,0,0,1,139.88,184.36Z"/><path class="cls-19" d="M175.2,175.21l-6.8.75c-.16-1.58-.43-3.06-.44-4.55a3.38,3.38,0,0,1,6.65-.81C174.93,172.06,175,173.58,175.2,175.21Z"/><path class="cls-19" d="M149.2,173.73c0-1.28-.06-2.59,0-3.9A2.85,2.85,0,0,1,152,167a2.77,2.77,0,0,1,2.82,2.57,33.28,33.28,0,0,1,0,4.14Z"/><path class="cls-19" d="M128.65,178.45c-2.51-1.69-5.18-3.09-5-6.53,0-1.3,0-2.78,1.62-3s2.17,1.19,2.41,2.42C128.09,173.66,128.33,176.06,128.65,178.45Z"/><path class="cls-19" d="M138.26,170.4l-4.31-.27a31.36,31.36,0,0,1,0-4.14c.16-1.18.9-2.37,2.23-2a3.38,3.38,0,0,1,2,2.1A18.68,18.68,0,0,1,138.26,170.4Z"/><path class="cls-19" d="M127,164.35c-1.46-.35-3.12-.53-3.14-.79a11.22,11.22,0,0,1,.47-4.78c.47-1.13,1.68-.43,1.94.51A41.94,41.94,0,0,1,127,164.35Z"/><g class="cls-9"><path class="cls-1" d="M375.06,299.47v5.46c0,9.95-6.57,19.89-19.63,27.48-26.3,15.29-69.08,15.29-95.55,0-13.33-7.69-20-17.79-19.95-27.87v-5.46c0,10.08,6.63,20.18,20,27.87,26.47,15.29,69.25,15.29,95.55,0C368.49,319.36,375,309.42,375.06,299.47Z"/><g class="cls-20"><g class="cls-9"><path class="cls-1" d="M375.06,299.47v5.46c0,7.65-3.89,15.3-11.62,21.87v-5.46c7.73-6.57,11.61-14.22,11.63-21.87Z"/><path class="cls-5" d="M363.43,321.34v5.46a54.08,54.08,0,0,1-8,5.61c-22.66,13.17-57.54,15-83.69,5.48v-5.46c26.16,9.51,61,7.69,83.69-5.48a54.08,54.08,0,0,0,8-5.61Z"/><path class="cls-1" d="M271.73,332.43v5.46a74.79,74.79,0,0,1-11.86-5.48c-13.33-7.69-20-17.79-19.95-27.87v-5.46c0,10.08,6.63,20.18,20,27.87a74.79,74.79,0,0,0,11.86,5.48Z"/></g></g><path class="cls-13" d="M355.11,271.6c26.47,15.29,26.61,40.07.31,55.35s-69.08,15.29-95.55,0-26.62-40.06-.32-55.35S328.64,256.32,355.11,271.6Z"/><path class="cls-1" d="M356.77,301.21c-.74,6.66-5.48,13.21-14.25,18.29-19.22,11.18-50.49,11.18-69.83,0-8.9-5.13-13.74-11.73-14.48-18.47-.89-7.89,3.86-15.94,14.24-22,19.22-11.17,50.49-11.17,69.84,0C352.83,285.13,357.65,293.26,356.77,301.21Z"/><path class="cls-21" d="M356.77,301.21c-.74,6.66-5.48,13.21-14.25,18.29-19.22,11.18-50.49,11.18-69.83,0-8.9-5.13-13.74-11.73-14.48-18.47.73-6.66,5.48-13.2,14.24-18.29,19.22-11.17,50.49-11.17,69.84,0C351.19,287.88,356,294.49,356.77,301.21Z"/></g><path class="cls-22" d="M354,272.6c25.85,14.93,26,39.13.3,54s-67.46,14.93-93.31,0-26-39.12-.31-54S328.14,257.68,354,272.6Z"/><path class="cls-23" d="M354,272c25.85,14.92,26,39.12.3,54.05s-67.46,14.92-93.31,0-26-39.13-.31-54.05S328.14,257,354,272Z"/><path class="cls-24" d="M354,271.31c25.85,14.93,26,39.13.3,54.05s-67.46,14.93-93.31,0-26-39.12-.31-54.05S328.14,256.39,354,271.31Z"/><path class="cls-25" d="M354,270.67c25.85,14.92,26,39.12.3,54.05s-67.46,14.92-93.31,0-26-39.13-.31-54.05S328.14,255.74,354,270.67Z"/><path class="cls-26" d="M354,270c25.85,14.93,26,39.13.3,54.05s-67.46,14.93-93.31,0S235,285,260.68,270,328.14,255.1,354,270Z"/><path class="cls-27" d="M354,269.38c25.85,14.92,26,39.12.3,54.05s-67.46,14.92-93.31,0-26-39.13-.31-54.05S328.14,254.45,354,269.38Z"/><path class="cls-28" d="M354,268.73c25.85,14.93,26,39.13.3,54s-67.46,14.93-93.31,0-26-39.12-.31-54S328.14,253.81,354,268.73Z"/><path class="cls-29" d="M354,268.09c25.85,14.92,26,39.12.3,54.05s-67.46,14.92-93.31,0-26-39.13-.31-54.05S328.14,253.16,354,268.09Z"/><path class="cls-30" d="M354,267.44c25.85,14.93,26,39.13.3,54.05s-67.46,14.93-93.31,0-26-39.12-.31-54.05S328.14,252.52,354,267.44Z"/><path class="cls-31" d="M354,266.8c25.85,14.92,26,39.12.3,54.05s-67.46,14.92-93.31,0-26-39.13-.31-54.05S328.14,251.87,354,266.8Z"/><path class="cls-32" d="M354,266.15c25.85,14.93,26,39.13.3,54.05s-67.46,14.93-93.31,0-26-39.12-.31-54.05S328.14,251.23,354,266.15Z"/><path class="cls-33" d="M354,265.51c25.85,14.92,26,39.12.3,54.05s-67.46,14.92-93.31,0-26-39.13-.31-54.05S328.14,250.58,354,265.51Z"/><g class="cls-9"><path class="cls-1" d="M373.63,254.69l-.15,41.37c0,9.71-6.42,19.42-19.18,26.83-25.68,14.93-67.46,14.93-93.31,0-13-7.51-19.51-17.37-19.48-27.21l.16-41.37c0,9.85,6.47,19.71,19.48,27.22,25.85,14.92,67.63,14.92,93.31,0C367.22,274.11,373.61,264.41,373.63,254.69Z"/><g class="cls-34"><g class="cls-9"><path class="cls-1" d="M373.63,254.69l-.15,41.37c0,7.47-3.81,14.93-11.35,21.35l.15-41.36c7.55-6.42,11.33-13.89,11.35-21.36Z"/><path class="cls-5" d="M362.28,276.05l-.15,41.36a53.45,53.45,0,0,1-7.83,5.48c-22.12,12.86-56.18,14.64-81.72,5.35l.16-41.36c25.54,9.29,59.6,7.5,81.72-5.35a52.8,52.8,0,0,0,7.82-5.48Z"/><path class="cls-1" d="M272.74,286.88l-.16,41.36A74,74,0,0,1,261,322.89c-13-7.51-19.51-17.37-19.48-27.21l.16-41.37c0,9.85,6.47,19.71,19.48,27.22a74,74,0,0,0,11.59,5.35Z"/></g></g><path class="cls-13" d="M354.16,227.48c25.85,14.92,26,39.12.3,54s-67.46,14.92-93.31,0-26-39.13-.31-54S328.3,212.55,354.16,227.48Z"/></g><path class="cls-22" d="M354,227.48c25.85,14.92,26,39.12.3,54s-67.46,14.92-93.31,0-26-39.13-.31-54S328.14,212.55,354,227.48Z"/><path class="cls-23" d="M354,226.83c25.85,14.93,26,39.13.3,54s-67.46,14.93-93.31,0-26-39.12-.31-54S328.14,211.91,354,226.83Z"/><path class="cls-24" d="M354,226.19c25.85,14.93,26,39.12.3,54.05s-67.46,14.92-93.31,0-26-39.13-.31-54.05S328.14,211.26,354,226.19Z"/><path class="cls-25" d="M354,225.54c25.85,14.93,26,39.13.3,54s-67.46,14.93-93.31,0-26-39.12-.31-54S328.14,210.62,354,225.54Z"/><path class="cls-26" d="M354,224.9c25.85,14.93,26,39.12.3,54s-67.46,14.92-93.31,0-26-39.13-.31-54S328.14,210,354,224.9Z"/><path class="cls-27" d="M354,224.26c25.85,14.92,26,39.12.3,54s-67.46,14.93-93.31,0-26-39.12-.31-54.05S328.14,209.33,354,224.26Z"/><path class="cls-28" d="M354,223.61c25.85,14.93,26,39.12.3,54.05s-67.46,14.92-93.31,0-26-39.13-.31-54.05S328.14,208.68,354,223.61Z"/><path class="cls-29" d="M354,223c25.85,14.92,26,39.12.3,54s-67.46,14.93-93.31,0-26-39.12-.31-54S328.14,208,354,223Z"/><path class="cls-30" d="M354,222.32c25.85,14.93,26,39.12.3,54.05s-67.46,14.92-93.31,0-26-39.13-.31-54.05S328.14,207.39,354,222.32Z"/><path class="cls-31" d="M354,221.68c25.85,14.92,26,39.12.3,54s-67.46,14.93-93.31,0-26-39.12-.31-54.05S328.14,206.75,354,221.68Z"/><path class="cls-32" d="M354,221c25.85,14.93,26,39.12.3,54s-67.46,14.92-93.31,0-26-39.13-.31-54S328.14,206.1,354,221Z"/><path class="cls-33" d="M354,220.39c25.85,14.92,26,39.12.3,54s-67.46,14.93-93.31,0-26-39.12-.31-54.05S328.14,205.46,354,220.39Z"/><g class="cls-9"><path class="cls-1" d="M373.47,241.93v5.34c0,9.71-6.42,19.42-19.18,26.83C328.62,289,286.84,289,261,274.1c-13-7.51-19.51-17.37-19.48-27.21v-5.34c0,9.85,6.47,19.71,19.48,27.22,25.85,14.93,67.62,14.93,93.31,0C367.06,261.35,373.44,251.65,373.47,241.93Z"/><g class="cls-35"><g class="cls-9"><path class="cls-1" d="M373.47,241.93v5.34c0,7.47-3.81,14.93-11.35,21.35v-5.33c7.55-6.42,11.33-13.88,11.35-21.36Z"/><path class="cls-5" d="M362.12,263.29v5.33a53.45,53.45,0,0,1-7.83,5.48c-22.12,12.86-56.18,14.64-81.72,5.35v-5.33c25.54,9.29,59.61,7.51,81.73-5.35a53.33,53.33,0,0,0,7.82-5.48Z"/><path class="cls-1" d="M272.57,274.12v5.33A73.08,73.08,0,0,1,261,274.1c-13-7.51-19.51-17.37-19.48-27.21v-5.34c0,9.85,6.47,19.71,19.48,27.22a73.45,73.45,0,0,0,11.58,5.35Z"/></g></g><path class="cls-13" d="M354,214.72c25.85,14.93,26,39.12.31,54s-67.46,14.93-93.31,0-26-39.12-.31-54S328.14,199.79,354,214.72Z"/><path class="cls-1" d="M355.61,243.63c-.72,6.51-5.35,12.9-13.91,17.87-18.77,10.91-49.31,10.91-68.19,0-8.7-5-13.42-11.47-14.15-18-.86-7.71,3.78-15.57,13.92-21.47,18.77-10.9,49.3-10.9,68.2,0C351.76,227.93,356.47,235.87,355.61,243.63Z"/><path class="cls-36" d="M355.61,243.63c-.72,6.51-5.35,12.9-13.91,17.87-18.77,10.91-49.31,10.91-68.19,0-8.7-5-13.42-11.47-14.15-18,.72-6.51,5.36-12.89,13.92-17.86,18.77-10.91,49.3-10.91,68.2,0C350.16,230.61,354.88,237.07,355.61,243.63Z"/></g><g class="cls-9"><path class="cls-1" d="M353,290.11l3.41,2c-2.25-1.31-5.36-1.12-8.8.86l-3.41-2C347.67,289,350.78,288.8,353,290.11Z"/><g class="cls-37"><g class="cls-9"><path class="cls-1" d="M347.64,293l-3.41-2,.56-.31,3.42,2-.57.31Z"/><path class="cls-1" d="M348.21,292.64l-3.42-2c3.22-1.69,6.11-1.79,8.24-.55l3.41,2c-2.13-1.24-5-1.14-8.23.55Z"/></g></g><path class="cls-1" d="M338.92,322.22l-3.41-2c-2.22-1.29-3.59-4-3.6-7.93,0-7.85,5.49-17.4,12.32-21.34l3.41,2c-6.83,3.94-12.35,13.5-12.32,21.34C335.33,318.19,336.7,320.93,338.92,322.22Z"/><g class="cls-38"><g class="cls-9"><path class="cls-1" d="M338.92,322.22l-3.41-2c-2.22-1.29-3.59-4-3.6-7.93a19.84,19.84,0,0,1,.43-4.07l3.42,2a19.26,19.26,0,0,0-.44,4.07c0,3.9,1.38,6.64,3.6,7.93Z"/><path class="cls-1" d="M335.76,310.22l-3.42-2c1.44-6.83,6.21-14,11.89-17.27l3.41,2c-5.68,3.28-10.45,10.44-11.88,17.27Z"/></g></g><path class="cls-13" d="M347.64,293C354.47,289,360,292.17,360,300s-5.49,17.4-12.32,21.34-12.38.78-12.4-7.07S340.81,296.89,347.64,293Z"/><path class="cls-1" d="M347.66,299.44c3.71-2.14,6.72-.42,6.74,3.84a14.76,14.76,0,0,1-6.7,11.59C344,317,341,315.29,341,311A14.72,14.72,0,0,1,347.66,299.44Z"/></g><g class="cls-9"><path class="cls-8" d="M404.67,73.13l-4.61-2.67a3.2,3.2,0,0,0-3.22.31l4.6,2.68A3.22,3.22,0,0,1,404.67,73.13Z"/><g class="cls-39"><g class="cls-9"><path class="cls-8" d="M404.67,73.13l-4.61-2.67a3.2,3.2,0,0,0-3.22.31l4.6,2.68a3.22,3.22,0,0,1,3.23-.32Z"/></g></g><polygon class="cls-8" points="341.38 154.41 336.78 151.74 319.71 197.95 324.32 200.62 341.38 154.41"/><path class="cls-8" d="M333.55,152.05l4.6,2.68a3.16,3.16,0,0,1-1.32-2.9l-4.6-2.68A3.13,3.13,0,0,0,333.55,152.05Z"/><g class="cls-40"><g class="cls-9"><path class="cls-8" d="M336.83,151.83l-4.6-2.68a3.13,3.13,0,0,0,1.32,2.9l4.6,2.68a3.16,3.16,0,0,1-1.32-2.9Z"/></g></g><polygon class="cls-8" points="336.73 116.03 332.12 113.36 332.23 149.15 336.83 151.83 336.73 116.03"/><polygon class="cls-8" points="401.44 73.45 396.84 70.77 336.64 105.53 341.25 108.2 401.44 73.45"/><path class="cls-8" d="M341.25,108.2l-4.61-2.67a10,10,0,0,0-4.52,7.83l4.61,2.67A10,10,0,0,1,341.25,108.2Z"/><g class="cls-41"><g class="cls-9"><path class="cls-8" d="M341.25,108.2l-4.61-2.67a10,10,0,0,0-4.52,7.83l4.61,2.67a10,10,0,0,1,4.52-7.83Z"/></g></g><path class="cls-13" d="M341.25,108.2a10,10,0,0,0-4.52,7.83l.1,35.8c0,2.87,2.05,4,4.55,2.58l-17.06,46.21,33.6-55.76,1.83-1.05,41.83-24.15a10,10,0,0,0,4.51-7.82L406,76.05c0-2.88-2-4-4.55-2.6Z"/></g><path class="cls-42" d="M364.27,235.42a3,3,0,0,0,3.14,2.86h0a3,3,0,0,0,2.83-3.16l-.82-13a3,3,0,0,0-3.13-2.86h0a3,3,0,0,0-2.84,3.16Z"/><path class="cls-42" d="M371.77,242.19,367,238.91a26.36,26.36,0,0,1,1.06-6.73,2.63,2.63,0,0,1,.72.53l6.08,7.3C374.6,241.19,372.59,242.18,371.77,242.19Z"/><path class="cls-43" d="M363.55,222.73c.15-1.58.06-3.17.13-4.75a10.74,10.74,0,0,1,1.08-4.58c.68-1.25,1.76-2.32,2.06-3.71a7.16,7.16,0,0,0,0-1.85c0-.38.16-.55.56-.49.93.12,1.39,1.57,1.55,2.34a4.66,4.66,0,0,1,0,1.86,9.85,9.85,0,0,1-.41,1.23,5,5,0,0,0-.85,1.92c-.24,1.3.24,2.53.34,3.81.21,2.79-2,4.67-3.14,7a.14.14,0,0,0,.07.2,7.22,7.22,0,0,0-.56,1.66,6.32,6.32,0,0,0,.36,3.16,13.8,13.8,0,0,0,.62,1.59,5.58,5.58,0,0,1-2-2.83C362.7,227.17,363.35,224.92,363.55,222.73Z"/><path class="cls-44" d="M375.12,275c.17-1.43.42-2.9.7-4.39l-4.34-.46c.19,1,.38,1.92.53,2.81,0,2.22-1.71,2.7-.83,5.08a2.28,2.28,0,0,0,1,1,2.67,2.67,0,0,1,1.44,1.74,3.48,3.48,0,0,0,.64,1.18c1.2,1.25,4.18,1.38,4.89.43,1-1.33-2.87-4.58-3.93-7.21C375.17,275.11,375.15,275,375.12,275Z"/><path class="cls-44" d="M384.42,267.06a8.32,8.32,0,0,0,1.33-.7c.24.55.47,1.09.71,1.62l.17.13c2.42,1.79,7.73,2.57,7.54,4.33-.12,1.25-2.88,2.79-4.65,2.32a3.4,3.4,0,0,1-1.24-.71,2.79,2.79,0,0,0-2.26-.77,2.43,2.43,0,0,1-1.42-.37c-2.07-1.63-.9-3-2-4.92C383.23,267.67,383.85,267.34,384.42,267.06Z"/><path class="cls-45" d="M377.36,258a18.76,18.76,0,0,0-1.46-8.23,27,27,0,0,0-5.18-7c-.07,0-9.38,2.51-9,3.56.21.6,8.66,10.42,8.8,10.86a2.81,2.81,0,0,1,.07,2c-.92,3.21-.37,12.66.09,15.66a11,11,0,0,0,5.68.26c.05-.22.9-14.89,1-17.09Z"/><path class="cls-46" d="M377.36,258.13V258C377.28,259.82,377.34,258.58,377.36,258.13Z"/><path class="cls-46" d="M377.36,258.13v0Z"/><path class="cls-46" d="M370.72,242.71a27,27,0,0,1,5.18,7,18.73,18.73,0,0,1,1.46,8.22v.16c0,.68-.12,2.14-.22,3.92-2.06-1.92-2.28-7.34-5.55-5.69-.57.12-.23,2.22,1.25,2.38-.23.35-1,.27-1,.27-1.79,4.49-1.34,9-.7,13.6a9.13,9.13,0,0,0,.75,2.53,6.22,6.22,0,0,1-1.24-.33c-.46-3-1-12.45-.09-15.66a2.81,2.81,0,0,0-.07-2c-.14-.44-8.59-10.26-8.8-10.86C361.34,245.22,370.65,242.71,370.72,242.71Z"/><path class="cls-47" d="M363,254.72c6,0,11.34-.5,11.34-.5,1.49,6.9,7.42,14.62,8.51,15.58a10.85,10.85,0,0,0,3.93-2.5c-1.61-3.16-6.19-17.45-8.83-19.53-1.65-1.31-17.29-2.11-17.24-2.85,0-.31-3.56-1-3.83-1C353.89,243.66,352.38,254.68,363,254.72Z"/><path class="cls-42" d="M358,221.4a2.48,2.48,0,0,0,2.51,2.43l6,2.77c.73,0,.66-3.19,1.11-3.7a1,1,0,0,1-.3-.7,3.36,3.36,0,0,0-.51-1.64,15.16,15.16,0,0,0-1.07-1.48l-.74-.28h-.34l-3.56,0-.15.09h0C358.49,220.38,359.69,219.35,358,221.4Z"/><path class="cls-42" d="M360.9,217.7l0,.82v.36l0,1.21a3.25,3.25,0,0,0,.45.54h0a2.13,2.13,0,0,0,.22.18,2.28,2.28,0,0,0,.76.4,4.7,4.7,0,0,0,1,.18h.41a1.49,1.49,0,0,0,.42-.08,1,1,0,0,0,.61-.45s0-.07.07-.1a2.38,2.38,0,0,0,.19-.55l-.1-1.42,0-.57-.06-1-.37,0Z"/><path class="cls-48" d="M369,234.28c-.09,3.13.9,6.36,1.79,9.67-.34.17-.66.4-1,.57a5.78,5.78,0,0,1-2.67.74,4,4,0,0,0-2.12.47c-.36.28-.44.78-.79,1.09a3.24,3.24,0,0,1-1.61.66c-2.9.51-6.13,1.28-7.58-1.3-.91-1.63.41-3,.78-4.79a27.93,27.93,0,0,0,.46-7.61,41.85,41.85,0,0,0-.91-6.39c-.18-1-2.09-2.44-1.89-3.45.39-2,5.05-3.64,6.72-4.43.28,2.43,1.43,5.69,4.29,5.87,4.44.29,2.19-4.5.77-6.48,2.51,0,3.39,2.15,4.29,4.7a31.64,31.64,0,0,1,1.5,3.28C371.57,230,369.07,230.76,369,234.28Z"/><path class="cls-49" d="M353.41,238.29a3,3,0,0,0,3.13,2.86h0a2.75,2.75,0,0,0,2.53-3.13L358.55,225a3,3,0,0,0-3.13-2.86h0a3,3,0,0,0-2.84,3.16Z"/><path class="cls-42" d="M360.58,216.27l-.11,2,.34,1.39a3.08,3.08,0,0,0,.44.48h0a1.16,1.16,0,0,0,.21.16,2.38,2.38,0,0,0,.75.36,4.27,4.27,0,0,0,1.37.15,1.4,1.4,0,0,0,.41-.06,1.07,1.07,0,0,0,.67-.5,1.85,1.85,0,0,0,.19-.48l-.12-1.76-.06-.85Z"/><path class="cls-43" d="M354.17,219.25c.19-.82.5-1.62.63-2.46s.05-1.88.1-2.82a13.11,13.11,0,0,1,.72-3.55,8.75,8.75,0,0,1,1-3v.13l0-.08a2.47,2.47,0,0,1,.42-.72c.12-.14.62-.52.64-.66l-.15,1a2.13,2.13,0,0,1,2.13.64,7.06,7.06,0,0,1,2.36,5.85,2.46,2.46,0,0,1-.84,1.83c-.38.26-.94.39-1.09.83s.2.85.48,1.21a3.77,3.77,0,0,1,.79,1.54,2,2,0,0,1-.29,1.67,5,5,0,0,1-1.18,1,.59.59,0,0,0-.28.42.56.56,0,0,0,.15.34c.6.74,2.1,1.44,1.94,2.63a2.67,2.67,0,0,1-.67,1.15,3.38,3.38,0,0,0-.34,1.79,2.08,2.08,0,0,0,.65,1.06,4.7,4.7,0,0,1,.53,2.48c-.17,1.41-1.31,1.91-2.34,2.65a4.13,4.13,0,0,0-1.39,1.86c-.36-.87-.94-1.4-.94-2.15s.8-1.47,1.16-2.24a2.65,2.65,0,0,0-.63-2.93c-.37-.37-.16-1-.81-1.46-.49-.35-1.1-.25-1.45-.75A9.24,9.24,0,0,1,354.17,219.25Z"/><path class="cls-43" d="M367.67,207.94c-.39-3.73-5.1-4.64-8.21-3.15a5.55,5.55,0,0,0-1.82,8.92l.16.18a4.2,4.2,0,0,1,2,0,7.63,7.63,0,0,1,3,1.27,4.29,4.29,0,0,1,1.27,1.17A10.27,10.27,0,0,0,367.67,207.94Z"/><path class="cls-50" d="M367.36,209.89c.25,3.37.19,6.82-1.62,8.24a2.81,2.81,0,0,1-2.23.38,4.91,4.91,0,0,1-.5-.1,8.72,8.72,0,0,1-2.38-1c-.8-.51-1.75-3.54-2-4.57-.76-3.29,1.71-3.57,3.79-5.16S367.12,206.53,367.36,209.89Z"/><path class="cls-43" d="M363.87,210c1.19-.14,2.79-.16,3.6-1.22a2.93,2.93,0,0,0,.38-.7c-.32-1.39-.88-1.49-2.71-2.74-1.24-.85-2.27-1.58-3.45-.08-.2.26-.65.37-.41.46,1.15,2.87-3.28,7.3-.86,8.62C360.77,213.06,362.72,210.11,363.87,210Z"/><path class="cls-43" d="M364.77,208.37a.85.85,0,0,1-.17,1,2.89,2.89,0,0,1-.89.55,9.66,9.66,0,0,0-3.07,2.13c-.66.95-.75,3.34-.72,4.49.07,2.51,1,6.26-1.18,8.54-.23.25-.59.57-1.31-.05a7.65,7.65,0,0,1-2.3-4.75,25.39,25.39,0,0,1,.08-5.37,6.24,6.24,0,0,1,2.69-5.42,11,11,0,0,1,6.86-2.27Z"/><path class="cls-50" d="M359.19,215.25c.66.61,1.25.86,1.69.55s.44-1-.09-1.69a1.61,1.61,0,0,0-2-.64C358.39,213.79,358.44,214.55,359.19,215.25Z"/><path class="cls-42" d="M359.53,214.94c.34.32.65.45.89.29s.22-.5-.05-.88a.85.85,0,0,0-1-.34C359.11,214.18,359.14,214.57,359.53,214.94Z"/><path class="cls-51" d="M359.64,250.53l8.57,4.85a1.63,1.63,0,0,0,1.46,0l4.53-2.69L373,252v-.34l-.84.5-.12-.07v.14l-1.83,1.08-.12-.07v.14l-2.41,1.42-1.14-.65v-.3l-.26.16-.38-.22-.75-.43-1.32-.75v-.38l-.33.19-1.13-.64v-.29l-.25.14-1.14-.64h0v-.85l1.17-.69.23.13v-.26l1.17-.69.23.13v-.26l1.17-.69.23.13v-.26l1.17-.69.23.13v-.26l1.17-.69.23.13V246l1.17-.69.23.12v-.26l1.18-.69.22.13v-.26l1.17-.69.23.13v-.26l1.18-.69,1.13.65v.29l.28-.17-.65-.37h0v-.84l1.17-.7,1.13.65v.29l.25-.14,1.13.64v.3l.25-.15,1.13.64v.29l.26-.14,1.13.64v.3l.26-.15,1.13.65v.84h0l-2.48,1.46-.15-.08v-.67l0,.84-1.67,1,1.23.7v.33l5.55-3.28a.53.53,0,0,0,.3-.43c0,.28,0,.56,0,.84a.52.52,0,0,1-.3.43l-14.71,8.71a1.6,1.6,0,0,1-1.46,0l-8.57-4.86a.49.49,0,0,1-.3-.41c0-.28,0-.57,0-.85A.52.52,0,0,0,359.64,250.53Z"/><polygon class="cls-45" points="383.04 247.7 384.32 246.96 384.32 246.82 383.04 247.56 383.04 247.7"/><polygon class="cls-45" points="383.04 247.93 384.32 247.19 384.32 247.05 383.04 247.79 383.04 247.93"/><polygon class="cls-45" points="383.04 248.14 384.32 247.4 384.32 247.26 383.04 248 383.04 248.14"/><polygon class="cls-52" points="370.27 255.81 371.27 255.21 371.25 254.49 370.25 255.1 370.27 255.81"/><polygon class="cls-53" points="371.06 255.09 370.3 255.55 370.31 255.74 371.23 255.19 371.23 255.19 371.06 255.09"/><polygon class="cls-54" points="370.29 255.12 370.3 255.55 371.06 255.1 371.05 254.66 371.01 254.69 370.29 255.12"/><polygon class="cls-45" points="370.29 255.19 370.3 255.49 371.02 255.06 371.01 254.75 370.29 255.19"/><polygon class="cls-55" points="371.22 255 371.21 254.56 371.05 254.66 371.06 255.09 371.23 255.19 371.22 255"/><polygon class="cls-52" points="360.76 251.94 359.76 251.36 359.78 250.64 360.78 251.22 360.76 251.94"/><polygon class="cls-53" points="359.97 251.24 360.72 251.67 360.72 251.87 359.8 251.33 359.8 251.33 359.97 251.24"/><polygon class="cls-54" points="360.74 251.24 360.73 251.67 359.97 251.24 359.98 250.81 360.02 250.84 360.74 251.24"/><polygon class="cls-45" points="360.74 251.31 360.73 251.61 360.01 251.21 360.02 250.9 360.74 251.31"/><polygon class="cls-55" points="359.81 251.14 359.82 250.71 359.98 250.81 359.97 251.24 359.8 251.33 359.81 251.14"/><polygon class="cls-52" points="362.03 252.67 361.52 252.37 361.54 251.65 362.05 251.96 362.03 252.67"/><polygon class="cls-53" points="361.73 252.26 362 252.41 361.99 252.6 361.56 252.35 361.56 252.35 361.73 252.26"/><polygon class="cls-54" points="362.01 251.98 362 252.41 361.73 252.26 361.74 251.83 361.78 251.85 362.01 251.98"/><polygon class="cls-45" points="362.01 252.04 362 252.35 361.77 252.22 361.78 251.92 362.01 252.04"/><polygon class="cls-55" points="361.57 252.16 361.58 251.73 361.74 251.83 361.73 252.26 361.56 252.35 361.57 252.16"/><polygon class="cls-52" points="362.69 253.06 362.18 252.75 362.2 252.04 362.71 252.34 362.69 253.06"/><polygon class="cls-53" points="362.39 252.64 362.66 252.79 362.65 252.98 362.22 252.73 362.22 252.73 362.39 252.64"/><polygon class="cls-54" points="362.67 252.36 362.66 252.79 362.39 252.64 362.4 252.21 362.44 252.24 362.67 252.36"/><polygon class="cls-45" points="362.67 252.43 362.66 252.73 362.43 252.6 362.44 252.3 362.67 252.43"/><polygon class="cls-55" points="362.23 252.54 362.24 252.11 362.4 252.21 362.39 252.64 362.22 252.73 362.23 252.54"/><path class="cls-54" d="M373,253.88a.55.55,0,0,1-.22.43c-.12.07-.23,0-.23-.17a.55.55,0,0,1,.23-.43C372.88,253.64,373,253.71,373,253.88Z"/><path class="cls-53" d="M372.56,254.19a.57.57,0,0,0,.22-.43v-.06c.11,0,.2,0,.2.18a.55.55,0,0,1-.22.43.14.14,0,0,1-.22-.11Z"/><path class="cls-56" d="M372.7,254.27a.54.54,0,0,0,.22-.43.21.21,0,0,0-.05-.15c.07,0,.11.08.11.19a.55.55,0,0,1-.22.43.13.13,0,0,1-.17,0A.17.17,0,0,0,372.7,254.27Z"/><path class="cls-54" d="M372.19,254.34a.54.54,0,0,1-.22.43c-.13.07-.23,0-.23-.17a.53.53,0,0,1,.23-.43C372.09,254.1,372.19,254.18,372.19,254.34Z"/><path class="cls-53" d="M371.77,254.65a.55.55,0,0,0,.22-.43v-.06c.11,0,.2,0,.2.18a.54.54,0,0,1-.22.43.14.14,0,0,1-.22-.11Z"/><path class="cls-56" d="M371.9,254.74a.55.55,0,0,0,.23-.43.22.22,0,0,0-.05-.16c.06,0,.11.08.11.19a.54.54,0,0,1-.22.43.15.15,0,0,1-.18,0A.15.15,0,0,0,371.9,254.74Z"/><polygon class="cls-53" points="372.09 243.55 373.23 244.19 374.4 243.5 373.27 242.86 372.09 243.55"/><polygon class="cls-53" points="373.69 244.22 374.83 244.86 377.71 243.16 376.58 242.51 373.69 244.22"/><polygon class="cls-53" points="370.7 244.37 371.83 245.02 373 244.33 371.87 243.68 370.7 244.37"/><polygon class="cls-53" points="375.82 244.57 376.95 245.22 379.1 243.95 377.97 243.31 375.82 244.57"/><polygon class="cls-53" points="369.3 245.19 370.44 245.84 371.61 245.15 370.48 244.5 369.3 245.19"/><polygon class="cls-53" points="374.5 245.35 375.63 246 376.8 245.31 375.67 244.66 374.5 245.35"/><polygon class="cls-53" points="370.97 245.82 372.1 246.47 373.27 245.78 372.14 245.13 370.97 245.82"/><polygon class="cls-53" points="376.47 245.8 377.6 246.44 380.49 244.74 379.36 244.1 376.47 245.8"/><polygon class="cls-53" points="367.91 246.01 369.04 246.66 370.21 245.97 369.08 245.33 367.91 246.01"/><polygon class="cls-53" points="373.18 246.13 374.31 246.77 375.48 246.08 374.35 245.44 373.18 246.13"/><polygon class="cls-53" points="378.27 246.35 379.4 247 381.88 245.54 380.75 244.89 378.27 246.35"/><polygon class="cls-53" points="369.63 246.61 370.77 247.25 371.94 246.56 370.81 245.92 369.63 246.61"/><polygon class="cls-53" points="375.14 246.58 376.27 247.23 377.44 246.54 376.31 245.89 375.14 246.58"/><polygon class="cls-53" points="371.86 246.9 372.99 247.55 374.16 246.86 373.03 246.21 371.86 246.9"/><polygon class="cls-53" points="373.83 247.35 374.97 248 376.14 247.31 375 246.66 373.83 247.35"/><polygon class="cls-53" points="365.12 247.66 366.25 248.3 367.42 247.62 366.29 246.97 365.12 247.66"/><polygon class="cls-53" points="376.29 247.52 377.42 248.16 379.25 247.09 378.12 246.44 376.29 247.52"/><polygon class="cls-53" points="370.54 247.68 371.67 248.33 372.85 247.64 371.71 246.99 370.54 247.68"/><polygon class="cls-53" points="372.51 248.13 373.65 248.77 374.82 248.08 373.69 247.44 372.51 248.13"/><polygon class="cls-53" points="363.72 248.48 364.86 249.13 366.03 248.44 364.89 247.79 363.72 248.48"/><polygon class="cls-53" points="369.22 248.46 370.36 249.1 371.53 248.41 370.39 247.77 369.22 248.46"/><polygon class="cls-53" points="365.63 248.96 366.76 249.61 367.94 248.92 366.8 248.27 365.63 248.96"/><polygon class="cls-53" points="371.21 248.9 372.34 249.54 373.51 248.85 372.38 248.21 371.21 248.9"/><polygon class="cls-53" points="362.33 249.3 363.46 249.95 364.63 249.26 363.5 248.61 362.33 249.3"/><polygon class="cls-53" points="360.93 250.12 362.07 250.77 363.24 250.08 362.11 249.43 360.93 250.12"/><polygon class="cls-53" points="367.9 249.24 369.04 249.88 370.21 249.19 369.07 248.54 367.9 249.24"/><polygon class="cls-53" points="364.3 249.75 365.43 250.4 366.6 249.71 365.47 249.06 364.3 249.75"/><polygon class="cls-53" points="369.85 249.7 370.98 250.34 372.15 249.65 371.02 249.01 369.85 249.7"/><polygon class="cls-53" points="366.58 250.01 367.72 250.66 368.89 249.97 367.76 249.32 366.58 250.01"/><polygon class="cls-53" points="368.54 250.47 369.68 251.11 370.85 250.42 369.72 249.78 368.54 250.47"/><polygon class="cls-53" points="365.26 250.79 366.4 251.43 367.57 250.74 366.44 250.1 365.26 250.79"/><polygon class="cls-53" points="362.32 250.91 363.45 251.56 365.27 250.49 364.14 249.85 362.32 250.91"/><polygon class="cls-53" points="367.23 251.24 368.36 251.89 369.53 251.2 368.4 250.55 367.23 251.24"/><polygon class="cls-53" points="372.95 251.14 374.63 252.09 378.83 249.6 377.14 248.65 372.95 251.14"/><polygon class="cls-53" points="369.02 251.8 370.16 252.44 371.99 251.37 370.85 250.72 369.02 251.8"/><polygon class="cls-53" points="363.78 251.75 365.1 252.5 365.85 252.93 366.23 253.14 368.21 251.98 367.07 251.33 366.47 251.69 365.15 250.94 363.78 251.75"/><path class="cls-52" d="M374.35,241a1.61,1.61,0,0,1,1.45,0l8.57,4.85a.45.45,0,0,1,0,.85l-14.71,8.71a1.63,1.63,0,0,1-1.46,0l-8.57-4.85a.45.45,0,0,1,0-.85Zm.28,11.12,4.2-2.48-1.68-1-4.2,2.49,1.68,1Zm2.63-3.83-1.14-.64-5.15,3,1.14.65,5.15-3Zm-11.41,4.67.38.21,2-1.16-1.14-.65-.6.36-1.32-.75-1.37.81,1.32.75.75.43Zm7.84-8.71,1.14.64,2.88-1.7-1.13-.64-2.89,1.7Zm2.78,1.58,1.13.64,2.89-1.7-1.13-.64-2.89,1.7Zm5.41-.26-1.13-.65-2.48,1.46,1.13.65,2.48-1.46Zm-11.84,7-1.13-.64-2.42,1.42,1.13.65,2.42-1.43Zm5.78-7.94,1.13.65L379.1,244l-1.13-.64-2.15,1.26Zm3.43,2.52-1.13-.65-1.83,1.08,1.13.65,1.83-1.08ZM372,251.37l-1.14-.65L369,251.8l1.14.64,1.83-1.07Zm-6.72-.88-1.13-.64-1.82,1.06,1.13.65,1.82-1.07Zm2.3.25-1.13-.64-1.17.69,1.13.64,1.17-.69Zm4.94-2.61,1.14.64,1.17-.69-1.13-.64-1.18.69Zm-4.6-2.11,1.13.64,1.17-.69-1.13-.64-1.17.69Zm1.94,3.68,1.13.64,1.17-.69L371,249l-1.17.69Zm-4.38-.64-1.17.69,1.13.65,1.17-.69-1.13-.65Zm6.62-5.51,1.14.65,1.17-.69-1.13-.65-1.18.69Zm.05,1.58-1.17.69,1.13.65,1.17-.69-1.13-.65Zm3,1.45,1.13.65,1.17-.69-1.13-.65-1.17.69Zm-8.34,1.69-1.17.69,1.13.65,1.18-.69-1.14-.65Zm1.34-.78-1.17.69,1.13.64,1.17-.69-1.13-.64Zm1.33-.79-1.17.69,1.13.65,1.18-.69-1.14-.65Zm-8.54,3.42,1.14.65,1.17-.69-1.14-.65-1.17.69Zm1.4-.82,1.13.65,1.17-.69-1.13-.65-1.17.69Zm14.47-4-1.13-.65-1.18.69,1.14.65,1.17-.69Zm-5.27,3.1-1.14-.64-1.17.69,1.13.64,1.18-.69Zm4-2.33-1.13-.64-1.17.69,1.13.64,1.17-.69Zm-5.27,3.11-1.13-.65-1.18.7,1.14.64,1.17-.69Zm-5.09-1.53,1.13.64,1.17-.69-1.13-.64-1.17.69Zm3.77,2.31-1.13-.65-1.17.69,1.13.65,1.17-.69Zm1.81-5.6,1.13.65,1.17-.69-1.13-.65-1.17.69Zm3.46,2.49-1.13-.65-1.17.69,1.13.65,1.17-.69Zm-1.32.78-1.13-.65-1.17.69,1.13.65,1.17-.69Zm-.54-2.6,1.13.64,1.18-.69-1.14-.64-1.17.69Zm-8.58,3.44,1.14.65,1.17-.69-1.14-.65-1.17.69Zm4.82,2,1.14.64,1.17-.69-1.13-.65-1.18.7Zm2.26-4.55-1.17.69,1.14.64,1.17-.69-1.14-.64Zm.41,3,1.13.64,1.17-.69-1.13-.64-1.17.69Zm-4,2.34,1.13.65,1.17-.69-1.13-.65-1.17.69Zm2.07-6.05,1.14.65,1.17-.69-1.13-.65-1.18.69Zm5.89-3.47-1.17.7,1.13.64,1.17-.69-1.13-.65Zm-8.68,5.12,1.14.64,1.17-.69-1.14-.64-1.17.69Zm7.32.51L375,248l1.17-.69-1.14-.65-1.17.69Z"/><polygon class="cls-53" points="374.02 242.42 375.15 243.06 376.32 242.37 375.19 241.72 374.02 242.42"/><polygon class="cls-53" points="372.3 245.04 373.44 245.68 374.61 244.99 373.47 244.35 372.3 245.04"/><polygon class="cls-53" points="366.51 246.84 367.65 247.48 368.82 246.79 367.69 246.15 366.51 246.84"/><polygon class="cls-53" points="368.3 247.39 369.43 248.04 370.61 247.35 369.47 246.7 368.3 247.39"/><polygon class="cls-53" points="366.96 248.18 368.1 248.82 369.27 248.13 368.14 247.49 366.96 248.18"/><polygon class="cls-53" points="370.97 250.65 372.11 251.3 377.26 248.26 376.12 247.62 370.97 250.65"/><polygon class="cls-53" points="366.49 253.29 367.63 253.94 370.04 252.51 368.91 251.87 366.49 253.29"/><path class="cls-49" d="M362.19,246.7c.17-1.26,1.92-1.89,2.59-2.11a15,15,0,0,1,2.1,1.38c1.2.93,2.42,2.15,2.55,3.27.3,2.37-.68,2.61-1.71,2.58C366.15,251.77,363.57,247.64,362.19,246.7Z"/><path class="cls-49" d="M354.31,236.29a2.94,2.94,0,0,1,4.17,0l7.64,9.12-2.95,2.19-8.88-7.13A3,3,0,0,1,354.31,236.29Z"/><path class="cls-42" d="M377.27,243.17c-.14-1.11-1.36-2.33-2.55-3.26a15.85,15.85,0,0,0-2.11-1.39,4.86,4.86,0,0,0-1.89,1.54h.61v1.76c1.47,1.21,3,3.9,4.22,3.94C376.58,245.79,377.56,245.54,377.27,243.17Z"/><path class="cls-51" d="M370.93,244.53l14.71-8.71a.53.53,0,0,1,.52-.06l.73.42a.5.5,0,0,0-.52,0l-.76.46.06,0h0l.43.25.3.17a.29.29,0,0,1,.13.27l-2.28,8a.94.94,0,0,1-.43.76l-.34-.2h0l.34.2s-15.05,9.27-14.92,9.35l-.37-.21-.37-.21a.55.55,0,0,1-.22-.47l2.27-8.83A1.64,1.64,0,0,1,370.93,244.53Z"/><path class="cls-56" d="M387.11,236.64c0-.46-.34-.64-.74-.41l-14.71,8.71a1.6,1.6,0,0,0-.71,1.27l-2.27,8.84c0,.46.34.65.74.41l14.71-8.71a1.6,1.6,0,0,0,.71-1.27Zm-.58.76a.28.28,0,0,0,0-.09.08.08,0,0,1,0,0Zm-.1-.26,0,0h0l0,0h0Zm0,0,0,0Zm-.06,0h0Zm-.08,0h0Zm-.07,0-.07,0,.05,0ZM369.3,254.47l0,.06h0Zm0-.18v0Zm0,.11,0,0Zm.13.17h0Zm.08,0h0Zm.09,0h0Zm14.27-8.43h0l.08,0h0Zm.09-.07,0,0,0,0Zm.13-.15h0a1.57,1.57,0,0,0,.14-.25.91.91,0,0,1-.07.14A.61.61,0,0,1,384.06,245.94Z"/><path class="cls-16" d="M372.33,246.32l1.23-.71a1,1,0,0,0,.43-.75h0c0-.28-.19-.39-.43-.25l-1.23.7a1,1,0,0,0-.43.76h0C371.9,246.34,372.09,246.46,372.33,246.32Z"/><path class="cls-53" d="M372.38,246.38l1.23-.71a1,1,0,0,0,.43-.75h0c0-.28-.2-.39-.43-.25l-1.23.71a.94.94,0,0,0-.44.75h0C371.94,246.41,372.14,246.52,372.38,246.38Z"/><g class="cls-9"><g class="cls-9"><g class="cls-57"><path class="cls-16" d="M132.91,49.53l-5.3-3.08a4.14,4.14,0,0,1,2.9-.65l5.31,3.09a4.16,4.16,0,0,0-2.91.64Z"/><path class="cls-16" d="M135.82,48.89l-5.31-3.09a2.18,2.18,0,0,1,.76.29l5.31,3.09a2.26,2.26,0,0,0-.76-.29Z"/></g></g><g class="cls-9"><g class="cls-58"><path class="cls-16" d="M129.28,61.75,124,58.66a3.62,3.62,0,0,1-1.5-3.31,10.29,10.29,0,0,1,1.27-4.64L129,53.8a10.15,10.15,0,0,0-1.26,4.64,3.61,3.61,0,0,0,1.5,3.31Z"/><path class="cls-16" d="M129,53.8l-5.3-3.09a12.18,12.18,0,0,1,1.43-2.15l5.31,3.09A12.22,12.22,0,0,0,129,53.8Z"/><path class="cls-16" d="M130.48,51.65l-5.31-3.09a9.11,9.11,0,0,1,2.44-2.11l5.3,3.08a9.27,9.27,0,0,0-2.43,2.12Z"/></g></g><path class="cls-59" d="M132.91,49.53c2.85-1.64,5.16-.32,5.17,2.95A11.33,11.33,0,0,1,133,61.39c-2.85,1.65-5.16.33-5.17-3A11.36,11.36,0,0,1,132.91,49.53Z"/><g class="cls-9"><g class="cls-60"><path class="cls-16" d="M133,37.65l-5.31-3.09a16.12,16.12,0,0,1,6.55-2.24,9.9,9.9,0,0,1,2.85.15l5.31,3.09a9.56,9.56,0,0,0-2.85-.15A15.88,15.88,0,0,0,133,37.65Z"/><path class="cls-16" d="M142.4,35.56l-5.31-3.09a8.45,8.45,0,0,1,2.48,1l5.31,3.09a8.45,8.45,0,0,0-2.48-.95Z"/></g></g><g class="cls-9"><g class="cls-61"><path class="cls-16" d="M121.21,56l-5.3-3.09c-1.36-.75-1.43-3.18-.2-5.51L121,50.48c-1.23,2.34-1.16,4.77.19,5.52Z"/><path class="cls-16" d="M121,50.48l-5.31-3.08c.05-.09.09-.18.14-.26a40.38,40.38,0,0,1,4-5.74l5.3,3.09a40.32,40.32,0,0,0-4,5.74l-.14.25Z"/><path class="cls-16" d="M125.12,44.49l-5.3-3.09c.43-.52.88-1,1.34-1.52a28.84,28.84,0,0,1,6.53-5.32L133,37.65A29.11,29.11,0,0,0,126.46,43c-.45.49-.9,1-1.34,1.52Z"/></g></g><path class="cls-59" d="M133,37.65a15.88,15.88,0,0,1,6.55-2.24,8.81,8.81,0,0,1,5.33,1.1c1.38.82,1.37,3.42,0,5.82A7.18,7.18,0,0,1,142.36,45a2.53,2.53,0,0,1-2.54.25,5.09,5.09,0,0,0-3.06-.64A9.24,9.24,0,0,0,133,45.85a16.28,16.28,0,0,0-3.73,3,21.84,21.84,0,0,0-3,4.15,7.28,7.28,0,0,1-2.54,2.69,2.56,2.56,0,0,1-2.5.27c-1.4-.78-1.43-3.36,0-5.77a39,39,0,0,1,5.3-7.26A29.11,29.11,0,0,1,133,37.65Z"/><g class="cls-9"><g class="cls-62"><path class="cls-16" d="M133,24.6l-5.3-3.09a26.92,26.92,0,0,1,11-3.77,16.83,16.83,0,0,1,4.85.25l5.31,3.09a16.83,16.83,0,0,0-4.85-.25,27,27,0,0,0-11,3.77Z"/><path class="cls-16" d="M148.77,21.08,143.46,18a13.65,13.65,0,0,1,4.09,1.56l5.31,3.09a13.65,13.65,0,0,0-4.09-1.56Z"/></g></g><g class="cls-9"><g class="cls-63"><path class="cls-16" d="M132.93,11.58l-5.31-3.09a37.41,37.41,0,0,1,15.13-5.21,23,23,0,0,1,6.73.35l5.3,3.09a22.87,22.87,0,0,0-6.72-.35,37.21,37.21,0,0,0-15.13,5.21Z"/><path class="cls-16" d="M154.78,6.72l-5.3-3.09a19.12,19.12,0,0,1,5.63,2.13l5.3,3.09a19,19,0,0,0-5.63-2.13Z"/></g></g><path class="cls-59" d="M133,24.6a27,27,0,0,1,11-3.77,14.86,14.86,0,0,1,8.94,1.81c1.39.8,1.39,3.41,0,5.81a7.25,7.25,0,0,1-2.51,2.63,2.51,2.51,0,0,1-2.53.25A11.16,11.16,0,0,0,141.15,30,20.09,20.09,0,0,0,133,32.79a36.06,36.06,0,0,0-8.16,6.63,49.07,49.07,0,0,0-6.64,9,7.25,7.25,0,0,1-2.52,2.67,2.55,2.55,0,0,1-2.51.26c-1.4-.78-1.42-3.37,0-5.78A65.12,65.12,0,0,1,122,33.49,48.6,48.6,0,0,1,133,24.6Z"/><g class="cls-9"><g class="cls-64"><path class="cls-16" d="M113.16,51.4l-5.31-3.09c-1.35-.75-1.41-3.18-.19-5.5L113,45.89c-1.23,2.33-1.16,4.76.19,5.51Z"/><path class="cls-16" d="M113,45.89l-5.31-3.08.15-.28a67.63,67.63,0,0,1,6.6-9.51l5.31,3.08a66.65,66.65,0,0,0-6.6,9.52l-.15.27Z"/><path class="cls-16" d="M119.72,36.1,114.41,33c.75-.9,1.52-1.78,2.31-2.62a48.16,48.16,0,0,1,10.94-8.89L133,24.6A48.6,48.6,0,0,0,122,33.49c-.79.84-1.56,1.72-2.3,2.61Z"/></g></g><path class="cls-59" d="M132.93,11.58a37.21,37.21,0,0,1,15.13-5.21,20.6,20.6,0,0,1,12.35,2.48c1.4.8,1.4,3.4,0,5.81a7.27,7.27,0,0,1-2.5,2.64,2.54,2.54,0,0,1-2.53.25,16.85,16.85,0,0,0-10.09-2A30.35,30.35,0,0,0,133,19.78a54.54,54.54,0,0,0-12.33,10,73.92,73.92,0,0,0-10,13.66,7.25,7.25,0,0,1-2.52,2.67,2.5,2.5,0,0,1-2.51.26c-1.4-.79-1.42-3.38,0-5.78a90.88,90.88,0,0,1,12.31-16.75A67.14,67.14,0,0,1,132.93,11.58Z"/><g class="cls-9"><g class="cls-65"><path class="cls-16" d="M105.55,46.38l-5.31-3.09c-1.35-.76-1.41-3.18-.19-5.5l5.31,3.09c-1.23,2.32-1.16,4.74.19,5.5Z"/><path class="cls-16" d="M105.36,40.88l-5.31-3.09a2.54,2.54,0,0,1,.16-.28A91.29,91.29,0,0,1,109.3,24.4l5.31,3.09a92.16,92.16,0,0,0-9.1,13.11l-.15.28Z"/><path class="cls-16" d="M114.61,27.49,109.3,24.4q1.56-1.87,3.21-3.63A67.14,67.14,0,0,1,127.62,8.49l5.31,3.09a67.14,67.14,0,0,0-15.11,12.27q-1.65,1.77-3.21,3.64Z"/></g></g></g><g class="cls-9"><path class="cls-3" d="M337.63,2.43,333.87.25a2.59,2.59,0,0,0-2.63.26L335,2.69A2.62,2.62,0,0,1,337.63,2.43Z"/><g class="cls-66"><g class="cls-9"><path class="cls-3" d="M337.63,2.43,333.87.25a2.59,2.59,0,0,0-2.63.26L335,2.69a2.62,2.62,0,0,1,2.63-.26Z"/></g></g><polygon class="cls-3" points="285.97 68.79 282.21 66.6 268.28 104.33 272.04 106.51 285.97 68.79"/><path class="cls-3" d="M279.57,66.86l3.76,2.19a2.62,2.62,0,0,1-1.08-2.37l-3.76-2.19A2.61,2.61,0,0,0,279.57,66.86Z"/><g class="cls-67"><g class="cls-9"><path class="cls-3" d="M282.25,66.68l-3.76-2.19a2.61,2.61,0,0,0,1.08,2.37l3.76,2.19a2.62,2.62,0,0,1-1.08-2.37Z"/></g></g><polygon class="cls-3" points="282.17 37.46 278.41 35.27 278.49 64.49 282.25 66.68 282.17 37.46"/><polygon class="cls-3" points="335 2.69 331.24 0.51 282.1 28.88 285.86 31.06 335 2.69"/><path class="cls-3" d="M285.86,31.06l-3.76-2.18a8.13,8.13,0,0,0-3.69,6.39l3.76,2.19A8.15,8.15,0,0,1,285.86,31.06Z"/><g class="cls-68"><g class="cls-9"><path class="cls-3" d="M285.86,31.06l-3.76-2.18a8.13,8.13,0,0,0-3.69,6.39l3.76,2.19a8.15,8.15,0,0,1,3.69-6.4Z"/></g></g><path class="cls-48" d="M285.86,31.06a8.15,8.15,0,0,0-3.69,6.4l.08,29.22c0,2.34,1.67,3.29,3.72,2.11L272,106.51,299.47,61l1.49-.86,34.15-19.71A8.16,8.16,0,0,0,338.8,34l-.09-29.22c0-2.35-1.66-3.3-3.71-2.12Z"/></g><g class="cls-9"><path class="cls-4" d="M357.33,71.62l-4-2.31a2.73,2.73,0,0,0-2.78.27l4,2.31A2.8,2.8,0,0,1,357.33,71.62Z"/><g class="cls-69"><g class="cls-9"><path class="cls-4" d="M357.33,71.62l-4-2.31a2.73,2.73,0,0,0-2.78.27l4,2.31a2.8,2.8,0,0,1,2.79-.27Z"/></g></g><polygon class="cls-4" points="302.58 141.94 298.6 139.62 302.09 174.85 306.08 177.17 302.58 141.94"/><path class="cls-4" d="M295.81,139.9l4,2.31a2.75,2.75,0,0,1-1.14-2.52l-4-2.31A2.78,2.78,0,0,0,295.81,139.9Z"/><g class="cls-70"><g class="cls-9"><path class="cls-4" d="M298.65,139.69l-4-2.31a2.78,2.78,0,0,0,1.15,2.52l4,2.31a2.75,2.75,0,0,1-1.14-2.52Z"/></g></g><polygon class="cls-4" points="298.56 108.73 294.58 106.42 294.66 137.38 298.65 139.69 298.56 108.73"/><polygon class="cls-4" points="354.54 71.89 350.56 69.58 298.48 99.64 302.47 101.96 354.54 71.89"/><path class="cls-4" d="M302.47,102l-4-2.32a8.63,8.63,0,0,0-3.9,6.77l4,2.32A8.59,8.59,0,0,1,302.47,102Z"/><g class="cls-71"><g class="cls-9"><path class="cls-4" d="M302.47,102l-4-2.32a8.63,8.63,0,0,0-3.9,6.77l4,2.32a8.59,8.59,0,0,1,3.91-6.77Z"/></g></g><path class="cls-72" d="M302.47,102a8.59,8.59,0,0,0-3.91,6.77l.09,31c0,2.49,1.76,3.5,3.93,2.25l3.5,35.23,10.81-43.5,1.59-.91,36.17-20.89a8.59,8.59,0,0,0,3.91-6.77l-.09-31c0-2.49-1.76-3.5-3.93-2.25Z"/></g><g class="cls-9"><path class="cls-5" d="M142.78,193.18l8,4.65a3.85,3.85,0,0,0-3.91.37l-8-4.65A3.87,3.87,0,0,1,142.78,193.18Z"/><g class="cls-73"><g class="cls-9"><path class="cls-5" d="M146.86,198.2l-8-4.65a5.85,5.85,0,0,1,1.66-.66l8,4.65a5.85,5.85,0,0,0-1.66.66Z"/><path class="cls-5" d="M148.52,197.54l-8-4.65a3.2,3.2,0,0,1,2.15.23l8,4.65a3.15,3.15,0,0,0-2.15-.23Z"/><path class="cls-5" d="M150.67,197.77l-8-4.65.1.06,8,4.65-.1-.06Z"/></g></g><polygon class="cls-13" points="88.6 231.89 80.61 227.24 138.87 193.55 146.86 198.2 88.6 231.89"/><path class="cls-6" d="M83.12,241.39l-8-4.65a12.13,12.13,0,0,1,5.47-9.5l8,4.65A12.17,12.17,0,0,0,83.12,241.39Z"/><g class="cls-74"><path class="cls-16" d="M80.61,227.24A10,10,0,0,0,78,229.57a13.5,13.5,0,0,0-1.86,3,10.35,10.35,0,0,0-1,4.16l8,4.65a10.54,10.54,0,0,1,1-4.16,13.83,13.83,0,0,1,1.85-3,10.16,10.16,0,0,1,2.66-2.33Z"/></g><path class="cls-59" d="M152.76,341.49a12.16,12.16,0,0,1-5.48,9.5L89,384.67c-3,1.75-5.5.34-5.51-3.14l0-4.45,69.25-40Z"/><polygon class="cls-75" points="152.39 207.17 152.73 337.04 83.48 377.08 83.14 247.21 152.39 207.17"/><path class="cls-59" d="M83.13,241.39a12.13,12.13,0,0,1,5.47-9.5l58.26-33.69c3-1.75,5.5-.33,5.51,3.15l0,5.82-69.25,40Z"/></g><path class="cls-16" d="M98,220.4a1.73,1.73,0,0,0,1,1.29,5.25,5.25,0,0,0,4.73,0,2.07,2.07,0,0,0,.71-.61c.51-.72.28-1.55-.71-2.13A5.25,5.25,0,0,0,99,219,1.55,1.55,0,0,0,98,220.4Z"/><path class="cls-76" d="M98,220.4a1.73,1.73,0,0,0,1,1.29,5.25,5.25,0,0,0,4.73,0,2.07,2.07,0,0,0,.71-.61,1.69,1.69,0,0,0-1-1.29,5.23,5.23,0,0,0-4.72,0A2.29,2.29,0,0,0,98,220.4Z"/><path class="cls-16" d="M86.05,227.8a1.74,1.74,0,0,0,.73.72,4.63,4.63,0,0,0,4.31,0l4.6-2.71a1.89,1.89,0,0,0,.7-.67c.39-.65.16-1.37-.71-1.88a4.64,4.64,0,0,0-4.33,0L86.79,226C86,226.51,85.69,227.19,86.05,227.8Z"/><path class="cls-76" d="M86.05,227.8a1.74,1.74,0,0,0,.73.72,4.63,4.63,0,0,0,4.31,0l4.6-2.71a1.89,1.89,0,0,0,.7-.67,1.75,1.75,0,0,0-.75-.76,4.67,4.67,0,0,0-4.33,0l-4.55,2.74A1.76,1.76,0,0,0,86.05,227.8Z"/><path class="cls-16" d="M125.74,219l-21.25,12.28c-.91.53-1.66.1-1.66-1h0a3.71,3.71,0,0,1,1.66-2.89l21.25-12.28c.91-.53,1.66-.09,1.66,1h0A3.71,3.71,0,0,1,125.74,219Z"/><path class="cls-16" d="M83.51,381.53a3.82,3.82,0,0,0,1.61,3.52l-8-4.65a3.84,3.84,0,0,1-1.61-3.52l0-4,8,4.62Z"/><polygon class="cls-16" points="75.14 236.74 83.13 241.39 83.14 247.21 75.15 242.59 75.14 236.74"/><polygon class="cls-16" points="83.14 247.21 83.48 377.47 75.49 372.85 75.15 242.59 83.14 247.21"/><polygon class="cls-77" points="79.03 244.83 83.14 247.21 83.48 377.47 79.03 374.9 79.03 244.83"/><polygon class="cls-75" points="152.39 207.17 152.73 337.04 83.48 377.08 83.14 247.21 152.39 207.17"/><g class="cls-9"><path class="cls-7" d="M76.32,214.23l-4.84-2.82a3.38,3.38,0,0,0-3.39.33l4.84,2.82A3.33,3.33,0,0,1,76.32,214.23Z"/><g class="cls-78"><g class="cls-9"><path class="cls-7" d="M76.32,214.23l-4.84-2.82a3.38,3.38,0,0,0-3.39.33l4.84,2.82a3.33,3.33,0,0,1,3.39-.33Z"/></g></g><path class="cls-7" d="M1.5,297.26l4.84,2.82A3.37,3.37,0,0,1,5,297L.11,294.2A3.33,3.33,0,0,0,1.5,297.26Z"/><g class="cls-79"><g class="cls-9"><path class="cls-7" d="M5,297,.11,294.2a3.33,3.33,0,0,0,1.39,3.06l4.84,2.82A3.37,3.37,0,0,1,5,297Z"/></g></g><polygon class="cls-7" points="4.84 259.36 0 256.54 0.11 294.2 4.95 297.02 4.84 259.36"/><polygon class="cls-7" points="72.93 214.56 68.09 211.74 4.75 248.31 9.6 251.12 72.93 214.56"/><path class="cls-7" d="M9.6,251.12l-4.85-2.81A10.48,10.48,0,0,0,0,256.54l4.85,2.82A10.46,10.46,0,0,1,9.6,251.12Z"/><g class="cls-80"><g class="cls-9"><path class="cls-7" d="M9.6,251.12l-4.85-2.81A10.48,10.48,0,0,0,0,256.54l4.85,2.82a10.46,10.46,0,0,1,4.75-8.24Z"/></g></g><path class="cls-81" d="M9.6,251.12a10.46,10.46,0,0,0-4.75,8.24L5,297c0,3,2.15,4.24,4.78,2.72l44-25.4,1.92-1.12,35.57,17.72L73.07,263.17A10.46,10.46,0,0,0,77.82,255l-.11-37.66c0-3-2.14-4.25-4.78-2.73Z"/></g><path class="cls-1" d="M143.27,262.11l-42.1,24.35c-2.54,1.47-4.6.28-4.6-2.65h0a10.15,10.15,0,0,1,4.59-7.95l46.7-27v5.31A10.18,10.18,0,0,1,143.27,262.11Z"/><path class="cls-1" d="M93.38,309.32l28.45-16.38a10.56,10.56,0,0,0,4.78-8.28h0c0-3.05-2.13-4.28-4.77-2.76L88.6,301v5.52C88.6,309.6,90.74,310.84,93.38,309.32Z"/><path class="cls-82" d="M211.71,362.22c7,4,7,10.56,0,14.59s-18.29,4-25.27,0-7-10.56,0-14.59S204.73,358.19,211.71,362.22Z"/><g class="cls-83"><polygon class="cls-84" points="277.22 388.92 273.01 391.37 183.82 339.8 188.03 337.35 277.22 388.92"/><polygon class="cls-13" points="183.82 259.97 183.82 330.18 273.01 381.75 273.01 311.54 183.82 259.97"/><polygon class="cls-13" points="273.01 381.75 277.22 379.3 277.22 309.08 273.01 311.54 273.01 381.75"/><polygon class="cls-13" points="277.22 309.08 273.01 311.54 183.82 259.97 188.03 257.51 277.22 309.08"/></g><path class="cls-85" d="M233.55,303.52l-40.64-23.46a12.07,12.07,0,0,1-5.45-9.43h0c0-3.46,2.45-4.87,5.45-3.15L233.55,291a12.07,12.07,0,0,1,5.45,9.43h0C239,303.84,236.55,305.25,233.55,303.52Z"/><path class="cls-86" d="M264.1,337.55l-40.65-23.46a12.1,12.1,0,0,1-5.44-9.43h0c0-3.46,2.45-4.87,5.44-3.15L264.1,325a12.08,12.08,0,0,1,5.44,9.43h0C269.54,337.87,267.09,339.28,264.1,337.55Z"/><path class="cls-87" d="M264.1,372.81l-40.65-23.46a12.08,12.08,0,0,1-5.44-9.43h0c0-3.46,2.45-4.87,5.44-3.14l40.65,23.46a12.08,12.08,0,0,1,5.44,9.43h0C269.54,373.13,267.09,374.54,264.1,372.81Z"/><path class="cls-88" d="M235.06,338.88l-40.64-23.47A12.07,12.07,0,0,1,189,306h0c0-3.45,2.45-4.87,5.45-3.14l40.64,23.46a12.1,12.1,0,0,1,5.44,9.43h0C240.5,339.19,238.05,340.61,235.06,338.88Z"/><path class="cls-42" d="M196,371.15c.44-.07.44-6.59,1.4-8.42,1.55-2.94,4-9.17,5.18-11.4a14.63,14.63,0,0,0-.07-7.31l-6.82-1c-.13,2.1,1.73,4.68,1.38,6.28-2.11,2.72-2.42,7.34-2.79,10.38a28.36,28.36,0,0,0-.17,3.42C194.56,363.92,194.79,371.32,196,371.15Z"/><path class="cls-89" d="M202.54,351.33a14.63,14.63,0,0,0-.07-7.31l-6.82-1c-.09,1.48.81,3.2,1.22,4.64,4,.68,5,4.91,3.14,8.25-2,3.74-4.82,8.58-3.65,12.8.19-2.08.42-4.9,1-6C198.91,359.79,201.4,353.56,202.54,351.33Z"/><path class="cls-49" d="M208.6,367.55c-.95.35-1.83.42-2-.82-.85-5.42.39-6.64.86-12.07.05-.61,1.26-5,1.93-10.29l-9.38-.44a33.9,33.9,0,0,0,1.78,7.24c-1.48,5.16.87,13.83,1.45,16.43,0,.37-.92,1.47-.17,2.35.29.34,9.1-.8,7.86-2.26A2.55,2.55,0,0,0,208.6,367.55Z"/><path class="cls-42" d="M210.91,367.69a2.55,2.55,0,0,0-2.31-.14c-.95.35-1.83.42-2-.82-.85-5.42.39-6.64.86-12.07.05-.61,1.26-5,1.93-10.29l-9.38-.44a35.76,35.76,0,0,0,1,5c1.86.62,3.83.46,5.9,1,.28,0,.42.55.28.83A104.83,104.83,0,0,0,205.55,368c0,.42-.83,1.52-1.39,1.11a3.74,3.74,0,0,1-1-1.14c-.22.51-.64,1.31-.06,2C203.34,370.29,212.15,369.15,210.91,367.69Z"/><path class="cls-16" d="M202.48,370.63a.24.24,0,0,1,0,.08,1.41,1.41,0,0,0,.89,1,2.46,2.46,0,0,0,.54,0,2.24,2.24,0,0,0,.58-.05,2.83,2.83,0,0,0,.57-.23,3.43,3.43,0,0,0,.54-.4,3.1,3.1,0,0,1,1.76-.46,5.49,5.49,0,0,0,1.81-.22c.27-.11,2.13-.75,2.55-1.71a1.68,1.68,0,0,0,0-1.17,1.22,1.22,0,0,0-1-.73,3.41,3.41,0,0,0-1.26.18c-.63.17-1.1.35-1.73.53a1.77,1.77,0,0,1-.73.1c.27.34,1.53.14,2.25.22a.41.41,0,0,1,.3.12c.13.15,0,.41-.11.55a1.67,1.67,0,0,1-.54.33,8.42,8.42,0,0,1-3.33.55c-.39,0-2.42.34-2.56-1.26a2,2,0,0,0-.53,1.17A3.28,3.28,0,0,0,202.48,370.63Z"/><path class="cls-53" d="M195.74,322.5l0,0h0Z"/><path class="cls-53" d="M211.42,342.76c-.18-2.74-.67-5.47-.79-8.21a18.49,18.49,0,0,0-2-8.92c-.75-1.66-1.44-3.1-3.4-3.51-2.32-.49-5.57-1.21-7.74.08-1.15.68-1.77,2-2.45,3.13-2.51,4.14-2.18,9.22-2.22,16.25,0,1.58-.08,3.82,2.44,5.27a10.61,10.61,0,0,0,2.87.65c6,1.5,8.15.58,10.89-.79C211.12,345.65,211.56,344.9,211.42,342.76Z"/><path class="cls-16" d="M208,312.67c2.35-6.65.77-5.73-3.88-8.33l-5.05-.9c-4.65-.63-5.65,4.16-5,7,.23,1.08,2.08,8,1.72,13.51-.18,2.82,9.72,3.4,12.12,1C208.75,324.12,207.76,313.43,208,312.67Z"/><path class="cls-90" d="M190.11,313l.29,0A.92.92,0,0,0,190.11,313Z"/><path class="cls-49" d="M208.2,295.12c0,9-2.94,6.45-3.45,8.06-.08.23-.06.21.12,1.93,0,1.18-5.4.6-5.16-1.06.09-.56.38-2.49.38-2.49a29.71,29.71,0,0,0,.27-4.21c-.43-3.18,1.59-3.28,3.36-4.64S208.2,291.91,208.2,295.12Z"/><path class="cls-91" d="M199.6,301.3a3.47,3.47,0,0,0,1.31.58,6.13,6.13,0,0,0,1.6-.11,4.08,4.08,0,0,0,1.59-.52c1.05-.79,1-1.85,1.32-2.39.56-.94,1.73-.75,2.46-2.06a5.41,5.41,0,0,0,.69-2.42,6.57,6.57,0,0,0-.21-1.94,3.29,3.29,0,0,0-1-1.13,6.48,6.48,0,0,0-7.44-.92c-1.92,1.17-2.88,2.34-3.17,3.51a.66.66,0,0,0-.06.2C195.71,297.29,199.43,301.17,199.6,301.3Z"/><path class="cls-92" d="M207.39,291.31a6.48,6.48,0,0,0-7.44-.92c-1.92,1.17-2.88,2.34-3.17,3.51a.66.66,0,0,0-.06.2,4.75,4.75,0,0,0,.12,2.86,2,2,0,0,0,1.77-.37c2.83-2.16,5.8-4.31,9.44-3.64a3,3,0,0,1,.45.15,3,3,0,0,0-.14-.66A3.29,3.29,0,0,0,207.39,291.31Z"/><path class="cls-93" d="M198.61,296.59a2,2,0,0,1-1.77.37,12.31,12.31,0,0,0,2.76,4.34,3.47,3.47,0,0,0,1.31.58,6.13,6.13,0,0,0,1.6-.11,4.08,4.08,0,0,0,1.59-.52c1.05-.79,1-1.85,1.32-2.39.56-.94,1.73-.75,2.46-2.06a5.41,5.41,0,0,0,.69-2.42,8.75,8.75,0,0,0-.07-1.28,3,3,0,0,0-.45-.15C204.41,292.28,201.44,294.43,198.61,296.59Z"/><path class="cls-49" d="M204.71,299.23c.43.68.88,1,1.34.86s.58-.73.29-1.48a1.43,1.43,0,0,0-1.54-1C204.35,297.81,204.22,298.47,204.71,299.23Z"/><path class="cls-42" d="M205.13,299c.19.3.38.45.58.37s.25-.31.13-.64-.48-.5-.67-.42S204.92,298.69,205.13,299Z"/><path class="cls-92" d="M198.56,292.63c-.51-1.09-2.29.09-3.09,1.14a12,12,0,0,0-1.94,5.51,18.84,18.84,0,0,0,0,5.51c.21,1.3.82,2.49.82,3.85a4.61,4.61,0,0,1-.22,2.06,3.66,3.66,0,0,1-2.92,2.23c.42-.16.88.18,1.31.31a9.31,9.31,0,0,0,2.15.37,5.9,5.9,0,0,0,2.33,0,6.6,6.6,0,0,0,2.7-2.49,7.06,7.06,0,0,0,1.09-4.6,6.49,6.49,0,0,0-.89-3.67,9.63,9.63,0,0,1-1.51-3.7,11.41,11.41,0,0,1-.37-1.83c0-.38,0-.76,0-1.14C197.88,295.09,199.13,293.84,198.56,292.63Z"/><path class="cls-94" d="M191.22,312.93l.26,0A.75.75,0,0,0,191.22,312.93Z"/><path class="cls-93" d="M200.8,306.54a6.49,6.49,0,0,0-.89-3.67,9.63,9.63,0,0,1-1.51-3.7,11.41,11.41,0,0,1-.37-1.83c0-.38,0-.76,0-1.14-.13-1.11,1.12-2.36.55-3.57h0c-2.35,1.92-1.56,5.94-.77,8.19,1.39,4.16,2.49,9.7-1.8,11.78a7.17,7.17,0,0,1-3.79.52l.33.12a9.31,9.31,0,0,0,2.15.37,5.9,5.9,0,0,0,2.33,0,6.6,6.6,0,0,0,2.7-2.49A7.06,7.06,0,0,0,200.8,306.54Z"/><path class="cls-16" d="M196.32,369a7.13,7.13,0,0,1-.44,2.69,1.72,1.72,0,0,1-.48.53c-.24.19-.57-.17-.78-.41-2.8-3.16-1.33-4.25-1.59-5.48-.14-.63-.7-1.15-.64-1.79a1.93,1.93,0,0,1,.39-1,1.74,1.74,0,0,1,1.82-.76c.59.13,1,1,1.18,1.4a5.54,5.54,0,0,1,.2,2.29,16.93,16.93,0,0,0,.32,2.25C196.31,368.84,196.31,368.94,196.32,369Z"/><path class="cls-95" d="M195.83,371.27l0,.39a1.73,1.73,0,0,1-.48.54c-.24.19-.57-.18-.78-.41-2.8-3.16-1.33-4.25-1.59-5.48-.13-.63-.7-1.16-.64-1.8a2,2,0,0,1,.39-1,1.64,1.64,0,0,1,.62-.13,1.1,1.1,0,0,1,.88.27,1,1,0,0,1,.21.63c.05.68-.17,1.37-.09,2a4.52,4.52,0,0,0,.27,1c.22.66.45,1.31.68,2,.12.35.24.7.38,1a2.7,2.7,0,0,1,.16.48A3.1,3.1,0,0,1,195.83,371.27Z"/><path class="cls-42" d="M221.44,296.29l.9-2.43,1.2-1.67c.13-.15.71-.94,1.27-.87.36.05,2.4.55,2.11,1.21-.2.44-2.16,3.4-2.16,3.4a3.81,3.81,0,0,0-1.44,1.3l-.2,1.1Z"/><path class="cls-13" d="M216.15,302.26c1.26-.65,2.95-.65,3.6.59h0a2.55,2.55,0,0,1-1.09,3.44l-9.24,5.7a3.19,3.19,0,0,1-4.31-1.35h0a3.18,3.18,0,0,1,1.37-4.29Z"/><path class="cls-13" d="M221.3,295.75c.78-1,3.68-.14,3.09.77l-3.82,8.25a2.8,2.8,0,0,1-3.78,1.17h0c-1.36-.72-1.56-1.64-.83-3Z"/><path class="cls-19" d="M117.78,310.14c-2.46.59-5,1.1-7.39,1.8a16.92,16.92,0,0,0-6.57,3.4,9.75,9.75,0,0,0-1.82,2.08c-1.21,1.92-1,2.94.83,4.4l1.37-1c2.7-2,5.85-2.72,9-3.27a48.69,48.69,0,0,1,21.41.89c3.43.95,4.93,1.91,8,4.93a2.82,2.82,0,0,0,.65-3.46,9.54,9.54,0,0,0-1.8-2.3c-3.29-3.09-7.35-4.35-11.73-4.82a81.83,81.83,0,0,0-18.37.52c.77-.21,1.53-.45,2.31-.63s1.64-.37,2.46-.5a45.08,45.08,0,0,1,21.18,1.32,16.91,16.91,0,0,1,6.09,3.24c3,2.62,3,5.79-.07,8.36a19.27,19.27,0,0,1-7.59,3.66c-1.67.46-3.37.78-5.18,1.2a13.37,13.37,0,0,0,2.68,3.89c1.09,1.11,2.27,2.13,3.41,3.19a2.36,2.36,0,0,1-3-.29c-2.73-2.4-5-5.07-5.84-8.45-2.15,0-4.2,0-6.25,0a39.65,39.65,0,0,1-13.69-2.3,15.68,15.68,0,0,1-5.56-3.29c-2.39-2.34-2.42-5.1-.06-7.47a14.6,14.6,0,0,1,5-3.1,35,35,0,0,1,9.67-2.29,4.38,4.38,0,0,1,1,.11Zm12.57,19.39,8-2.95c-.7-.87-1.17-1.59-1.77-2.19a12.53,12.53,0,0,0-4.68-2.72A30.15,30.15,0,0,0,118,320.31a21.21,21.21,0,0,0-8.92,2.88c-.6.37-1.14.84-1.88,1.39,7.44,2.93,14.94,3.37,22.53,2.63Zm11-4.81c-.5-.68-.9-1.32-1.39-1.86a13.92,13.92,0,0,0-5.52-3.5,35.76,35.76,0,0,0-17.51-1.8A25.1,25.1,0,0,0,106.42,321c-.81.51-1.54,1.17-2.38,1.82.44.29.74.46,1,.67a1.21,1.21,0,0,0,1.66-.06,14.73,14.73,0,0,1,3.64-2,39,39,0,0,1,19-1.12,16.51,16.51,0,0,1,7.29,2.58c1.1.81,2.06,1.81,3.13,2.78Z"/><path class="cls-19" d="M123.44,339.2c-.09-.92-.21-1.7-.22-2.47a1.65,1.65,0,0,1,1.5-1.72,1.72,1.72,0,0,1,1.94,1.36c.15.85.2,1.71.31,2.67Z"/><path class="cls-19" d="M116.78,338.88l-2.9-.45c0-.83,0-1.6,0-2.37a1.44,1.44,0,1,1,2.88,0C116.82,336.94,116.78,337.83,116.78,338.88Z"/><path class="cls-19" d="M109.78,337.36c-.82-.33-1.47-.57-2.1-.83a.91.91,0,0,1-.36-.24c-.34-.45-.3-3.05.13-3.43.26-.24.82-.51,1-.39a2.15,2.15,0,0,1,1,1.18C109.66,334.81,109.67,336,109.78,337.36Z"/><path class="cls-19" d="M125.84,333.2l-3.1.34c-.07-.72-.19-1.39-.2-2.07a1.54,1.54,0,0,1,3-.37C125.71,331.77,125.75,332.46,125.84,333.2Z"/><path class="cls-19" d="M114,332.53c0-.59,0-1.19,0-1.78a1.31,1.31,0,0,1,1.27-1.28,1.26,1.26,0,0,1,1.28,1.17,14.68,14.68,0,0,1,0,1.89Z"/><path class="cls-19" d="M104.67,334.67c-1.14-.77-2.35-1.4-2.29-3,0-.59,0-1.26.74-1.38s1,.54,1.09,1.1C104.42,332.49,104.52,333.59,104.67,334.67Z"/><path class="cls-19" d="M109,331l-2-.12a14.5,14.5,0,0,1,0-1.88c.07-.54.41-1.08,1-.93a1.49,1.49,0,0,1,.89,1A8.45,8.45,0,0,1,109,331Z"/><path class="cls-19" d="M103.93,328.26c-.67-.16-1.42-.24-1.43-.36a5.07,5.07,0,0,1,.21-2.17c.22-.52.77-.2.88.23A18.85,18.85,0,0,1,103.93,328.26Z"/></g></g></g></svg>