<svg xmlns="http://www.w3.org/2000/svg" viewBox="0 0 453.79 145.16"><defs><style>.cls-1{fill:#ededed;}</style></defs><title>Asset 9logo2</title><g id="Layer_2" data-name="Layer 2"><g id="BLACK_B" data-name="BLACK B"><path class="cls-1" d="M85.5,1.56C73.31,4.48,61,7,49,10.45,37.12,13.87,25.9,19,16.5,27.28a47.85,47.85,0,0,0-9,10.26c-6,9.48-4.9,14.51,4.1,21.75,2.2-1.65,4.45-3.37,6.73-5C31.72,44.58,47.31,40.81,63.1,38.1,98.63,32,134,32.84,168.87,42.5c17,4.69,24.39,9.4,39.41,24.33,4.8-4.53,6.43-11.12,3.19-17.08a46.36,46.36,0,0,0-8.87-11.38c-16.25-15.27-36.31-21.48-58-23.83-30.36-3.3-60.5-.91-90.75,2.61,3.79-1.06,7.56-2.23,11.39-3.14,4-.95,8.09-1.81,12.17-2.46C112.81,6,147.8,7,182.11,18.07c10.93,3.53,21.29,8.34,30.06,16,14.77,12.94,14.68,28.58-.33,41.3-10.93,9.25-23.93,14.39-37.52,18.1-8.23,2.24-16.63,3.85-25.58,5.89A66.36,66.36,0,0,0,162,118.65c5.4,5.45,11.21,10.5,16.86,15.75-5.24,2.83-9.8,3.15-15.05-1.46-13.5-11.83-24.6-25-28.85-41.72-10.63,0-20.75.07-30.86,0C80.92,91,58.23,88,36.41,79.82,26.31,76,16.79,71.19,9,63.56-2.88,52-3,38.37,8.67,26.65c7-7,15.55-11.6,24.59-15.31C48.57,5.06,64.64,1.77,81,0A22,22,0,0,1,86,.6Zm62.08,95.81L187.13,82.8c-3.44-4.31-5.77-7.87-8.73-10.8-6.52-6.45-14.64-10.42-23.16-13.45-22.39-8-45.47-9.6-68.89-6.74C70.8,53.71,55.76,57.58,42.29,66c-2.95,1.85-5.62,4.15-9.26,6.88,36.76,14.48,73.82,16.68,111.29,13C145.43,89.81,146.39,93.2,147.58,97.37Zm54.18-23.76c-2.49-3.37-4.44-6.52-6.89-9.21-7.49-8.22-17.05-13.37-27.28-17.28-28-10.73-57-12.58-86.52-8.9-18.3,2.27-35.9,7-51.69,16.94-4,2.54-7.62,5.81-11.79,9,2.18,1.42,3.67,2.25,5,3.27,2.86,2.2,5,1.91,8.2-.27,5.6-3.83,11.58-7.59,18-9.7,30.79-10.14,62.29-11,94-5.52,12.71,2.18,25.4,4.9,36,12.74,5.43,4,10.14,9,15.45,13.75Z"/><path class="cls-1" d="M113.46,145.16c-.44-4.57-1-8.39-1.11-12.23a8.19,8.19,0,0,1,7.45-8.49,8.54,8.54,0,0,1,9.56,6.74c.75,4.17,1,8.44,1.55,13.2Z"/><path class="cls-1" d="M80.55,143.6l-14.32-2.25c0-4.09-.16-7.91,0-11.71.24-4.33,3.6-7.6,7.3-7.49,3.53.1,6.68,3.24,6.91,7.44C80.74,134,80.55,138.37,80.55,143.6Z"/><path class="cls-1" d="M45.94,136.05c-4-1.59-7.22-2.82-10.37-4.1a4.37,4.37,0,0,1-1.77-1.14c-1.69-2.23-1.46-15.08.62-17,1.3-1.18,4.09-2.51,5-1.91,2.08,1.3,4.45,3.6,4.86,5.83C45.38,123.46,45.42,129.35,45.94,136.05Z"/><path class="cls-1" d="M125.3,115.5,110,117.19c-.36-3.55-1-6.89-1-10.23A7.6,7.6,0,0,1,124,105.15C124.69,108.43,124.85,111.84,125.3,115.5Z"/><path class="cls-1" d="M66.89,112.18c0-2.89-.15-5.83,0-8.76.23-3.63,3-6.45,6.26-6.33a6.22,6.22,0,0,1,6.33,5.78c.4,2.91.09,5.92.09,9.31Z"/><path class="cls-1" d="M20.71,122.77c-5.65-3.78-11.63-6.93-11.3-14.66.12-2.93.1-6.24,3.64-6.83s4.88,2.66,5.41,5.44C19.46,112,20,117.42,20.71,122.77Z"/><path class="cls-1" d="M42.31,104.69l-9.69-.6c0-3.4-.31-6.4.09-9.3.36-2.65,2-5.33,5-4.56a7.49,7.49,0,0,1,4.41,4.7C42.86,97.83,42.31,101.05,42.31,104.69Z"/><path class="cls-1" d="M17,91.1c-3.3-.8-7-1.19-7.06-1.78-.2-3.58-.27-7.51,1.06-10.73,1.05-2.54,3.77-1,4.34,1.15C16.26,83,16.4,86.37,17,91.1Z"/><path class="cls-1" d="M236.37,17.48h13.91q13.91,0,18.83,1.07a13,13,0,0,1,8,5.48q3.09,4.41,3.1,14.08,0,8.82-2.19,11.85t-8.64,3.64c3.89,1,6.5,2.26,7.84,3.87a11.64,11.64,0,0,1,2.5,4.46q.5,2,.49,11.18V93H262V67.93c0-4.05-.32-6.55-1-7.52S258.72,59,256,59V93H236.37ZM256,30.4V47.21a8.73,8.73,0,0,0,4.64-.91q1.33-.91,1.33-5.91V36.24c0-2.4-.43-4-1.28-4.72S258.29,30.4,256,30.4Z"/><path class="cls-1" d="M332.75,61.72q0,11.39-.54,16.13a18.09,18.09,0,0,1-11,14.68,27.8,27.8,0,0,1-11.2,2.1,28.5,28.5,0,0,1-10.9-2,18.16,18.16,0,0,1-11.27-14.58,157.67,157.67,0,0,1-.56-16.34V48.79q0-11.38.53-16.12a18,18,0,0,1,11-14.68,27.73,27.73,0,0,1,11.2-2.1,28.48,28.48,0,0,1,10.89,2,18.15,18.15,0,0,1,11.28,14.59,160.41,160.41,0,0,1,.56,16.33ZM313.1,36.89q0-5.26-.59-6.74a2.32,2.32,0,0,0-2.4-1.47,2.68,2.68,0,0,0-2.36,1.19q-.81,1.18-.81,7V72.18q0,6.57.53,8.12a2.35,2.35,0,0,0,2.5,1.54,2.42,2.42,0,0,0,2.57-1.78q.56-1.77.56-8.44Z"/><path class="cls-1" d="M400.7,17.48V93H383.53l0-51-6.84,51H364.48l-7.21-49.85,0,49.85H340.07V17.48H365.5q1.13,6.81,2.33,16.06l2.79,19.22,4.52-35.28Z"/><path class="cls-1" d="M442.56,17.48,453.79,93H433.71l-1-13.58h-7L424.45,93H404.13l10-75.56ZM432.14,66.06q-1.49-12.84-3-31.74-3,21.71-3.77,31.74Z"/><path class="cls-1" d="M248.34,131.51a16.92,16.92,0,0,1-4.64-.57,9.79,9.79,0,0,1-3.34-1.6,7,7,0,0,1-2.07-2.51,8.78,8.78,0,0,1-.84-3.32h1.9a7.46,7.46,0,0,0,1.07,2.95,6.17,6.17,0,0,0,2,1.86,8,8,0,0,0,2.65,1,15.93,15.93,0,0,0,3.16.29,12.27,12.27,0,0,0,3.15-.37,7.4,7.4,0,0,0,2.39-1.08,4.82,4.82,0,0,0,1.52-1.7,4.67,4.67,0,0,0,.52-2.23,4.93,4.93,0,0,0-.45-2.22,4,4,0,0,0-1.53-1.57,12.06,12.06,0,0,0-2.84-1.19c-1.17-.35-2.63-.71-4.37-1.08a23.45,23.45,0,0,1-3.69-1.1,9.59,9.59,0,0,1-2.55-1.45,5.23,5.23,0,0,1-1.49-1.89,6,6,0,0,1-.48-2.48,6.11,6.11,0,0,1,.65-2.8,6.33,6.33,0,0,1,1.83-2.17,8.85,8.85,0,0,1,2.85-1.42,12.82,12.82,0,0,1,3.67-.5,13.8,13.8,0,0,1,3.69.47,9.4,9.4,0,0,1,2.93,1.35,7.32,7.32,0,0,1,2,2.15,7.41,7.41,0,0,1,1,2.88h-1.84a6.44,6.44,0,0,0-.87-2,5.57,5.57,0,0,0-1.54-1.56,7.29,7.29,0,0,0-2.25-1,10.8,10.8,0,0,0-3-.37,9.12,9.12,0,0,0-5.32,1.29,4.11,4.11,0,0,0-1.81,3.54,4.55,4.55,0,0,0,.33,1.8,3.57,3.57,0,0,0,1.14,1.37,7.75,7.75,0,0,0,2.12,1.08,25.6,25.6,0,0,0,3.28.87l2.37.51c.81.17,1.61.38,2.38.62a14.75,14.75,0,0,1,2.21.88,6.65,6.65,0,0,1,1.83,1.3,5.77,5.77,0,0,1,1.25,1.83,6.26,6.26,0,0,1,.47,2.52,6.77,6.77,0,0,1-.71,3.08,7.34,7.34,0,0,1-2,2.41,9.17,9.17,0,0,1-3,1.58A12.08,12.08,0,0,1,248.34,131.51Z"/><path class="cls-1" d="M274.63,104.34a12.63,12.63,0,0,1,4.95,1,11.13,11.13,0,0,1,3.91,2.73,12.46,12.46,0,0,1,2.56,4.26,15.76,15.76,0,0,1,.93,5.55,16.32,16.32,0,0,1-.91,5.55,12.88,12.88,0,0,1-2.55,4.32,11.43,11.43,0,0,1-3.9,2.8,13,13,0,0,1-10,0,11.49,11.49,0,0,1-3.91-2.78,12.93,12.93,0,0,1-2.55-4.31,16.25,16.25,0,0,1-.91-5.58,16.09,16.09,0,0,1,.92-5.58,12.45,12.45,0,0,1,2.58-4.25,11.4,11.4,0,0,1,3.91-2.71A12.58,12.58,0,0,1,274.63,104.34Zm0,25.25a10.8,10.8,0,0,0,4.15-.78,9,9,0,0,0,3.29-2.28,10.48,10.48,0,0,0,2.16-3.7,15.07,15.07,0,0,0,.77-5,14.63,14.63,0,0,0-.78-5,10.42,10.42,0,0,0-2.16-3.62,8.79,8.79,0,0,0-3.25-2.23,11,11,0,0,0-4.11-.75,11.09,11.09,0,0,0-4.17.76,9.13,9.13,0,0,0-3.29,2.24,10.24,10.24,0,0,0-2.17,3.63,14.45,14.45,0,0,0-.78,5,15.07,15.07,0,0,0,.77,5,10.59,10.59,0,0,0,2.14,3.7,9,9,0,0,0,3.28,2.28A10.84,10.84,0,0,0,274.6,129.59Z"/><path class="cls-1" d="M308,131H292.58V104.82h1.91v24.29H308Z"/><path class="cls-1" d="M323.21,131.51a14.6,14.6,0,0,1-4-.49,8.45,8.45,0,0,1-2.76-1.33,6.5,6.5,0,0,1-1.75-2,9.69,9.69,0,0,1-1-2.4,14,14,0,0,1-.42-2.63c-.05-.91-.08-1.8-.08-2.66V104.82h1.91V120a18.09,18.09,0,0,0,.54,4.87,6.77,6.77,0,0,0,1.58,2.93,5.32,5.32,0,0,0,2.54,1.44,14.16,14.16,0,0,0,3.43.38,14.68,14.68,0,0,0,3.49-.38,5.21,5.21,0,0,0,2.53-1.45,7,7,0,0,0,1.55-2.93,18.53,18.53,0,0,0,.52-4.86V104.82h1.92V120a22.8,22.8,0,0,1-.46,4.84,8.84,8.84,0,0,1-1.58,3.6,7.09,7.09,0,0,1-3.06,2.25A13.26,13.26,0,0,1,323.21,131.51Z"/><path class="cls-1" d="M358.09,106.73h-9.17V131H347v-24.3h-9.07v-1.91h20.16Z"/><path class="cls-1" d="M365.53,131h-1.92V104.82h1.92Z"/><path class="cls-1" d="M384.22,104.34a12.64,12.64,0,0,1,5,1,11.22,11.22,0,0,1,3.91,2.73,12.62,12.62,0,0,1,2.56,4.26,17.29,17.29,0,0,1,0,11.1,12.55,12.55,0,0,1-2.55,4.32,11.24,11.24,0,0,1-3.9,2.8,13,13,0,0,1-10,0,11.39,11.39,0,0,1-3.91-2.78,12.6,12.6,0,0,1-2.55-4.31,16.25,16.25,0,0,1-.91-5.58,16.09,16.09,0,0,1,.92-5.58,12.43,12.43,0,0,1,2.57-4.25,11.44,11.44,0,0,1,3.92-2.71A12.53,12.53,0,0,1,384.22,104.34Zm0,25.25a10.84,10.84,0,0,0,4.15-.78,9,9,0,0,0,3.29-2.28,10.48,10.48,0,0,0,2.16-3.7,15.08,15.08,0,0,0,.76-5,14.63,14.63,0,0,0-.78-5,10.25,10.25,0,0,0-2.15-3.62,8.83,8.83,0,0,0-3.26-2.23,11,11,0,0,0-4.1-.75,11.1,11.1,0,0,0-4.18.76,9.3,9.3,0,0,0-3.29,2.24,10.22,10.22,0,0,0-2.16,3.63,14.45,14.45,0,0,0-.78,5,15.08,15.08,0,0,0,.76,5,10.61,10.61,0,0,0,2.15,3.7,8.86,8.86,0,0,0,3.28,2.28A10.8,10.8,0,0,0,384.2,129.59Z"/><path class="cls-1" d="M422.3,131h-2.51l-16-23.94V131h-1.91V104.82h2.63l15.87,23.89V104.82h1.91Z"/><path class="cls-1" d="M438.58,131.51a16.87,16.87,0,0,1-4.64-.57,9.7,9.7,0,0,1-3.34-1.6,6.83,6.83,0,0,1-2.07-2.51,8.78,8.78,0,0,1-.84-3.32h1.89a7.32,7.32,0,0,0,1.08,2.95,6,6,0,0,0,1.95,1.86,7.85,7.85,0,0,0,2.64,1,15.93,15.93,0,0,0,3.16.29,12.21,12.21,0,0,0,3.15-.37,7.4,7.4,0,0,0,2.39-1.08,4.82,4.82,0,0,0,1.52-1.7,4.68,4.68,0,0,0,.53-2.23,4.8,4.8,0,0,0-.46-2.22,4,4,0,0,0-1.53-1.57,12.15,12.15,0,0,0-2.83-1.19c-1.18-.35-2.63-.71-4.37-1.08a23.27,23.27,0,0,1-3.7-1.1,9.59,9.59,0,0,1-2.55-1.45,5.2,5.2,0,0,1-1.48-1.89,6,6,0,0,1-.48-2.48,6.1,6.1,0,0,1,.64-2.8,6.36,6.36,0,0,1,1.84-2.17,8.8,8.8,0,0,1,2.84-1.42,12.89,12.89,0,0,1,3.68-.5,13.67,13.67,0,0,1,3.68.47,9.29,9.29,0,0,1,2.93,1.35,7.07,7.07,0,0,1,3,5H445.4a6.42,6.42,0,0,0-.86-2,5.75,5.75,0,0,0-1.55-1.56,7.34,7.34,0,0,0-2.24-1,10.92,10.92,0,0,0-3-.37,9.12,9.12,0,0,0-5.32,1.29,4.11,4.11,0,0,0-1.81,3.54,4.38,4.38,0,0,0,.34,1.8,3.45,3.45,0,0,0,1.13,1.37,7.75,7.75,0,0,0,2.12,1.08,25.6,25.6,0,0,0,3.28.87l2.37.51c.81.17,1.61.38,2.38.62a14.87,14.87,0,0,1,2.22.88,7,7,0,0,1,1.83,1.3,5.75,5.75,0,0,1,1.24,1.83,6.26,6.26,0,0,1,.47,2.52,6.77,6.77,0,0,1-.71,3.08,7.21,7.21,0,0,1-2,2.41,9.17,9.17,0,0,1-3,1.58A12.06,12.06,0,0,1,438.58,131.51Z"/></g></g></svg>