<svg xmlns="http://www.w3.org/2000/svg" xmlns:xlink="http://www.w3.org/1999/xlink" viewBox="0 0 495.73 289.11"><defs><style>.cls-1{fill:none;}.cls-2{isolation:isolate;}.cls-3{fill:#ededed;}.cls-4{clip-path:url(#clip-path);}.cls-5{mix-blend-mode:color-dodge;fill:url(#radial-gradient);}.cls-6{fill:url(#linear-gradient);}.cls-7{fill:#312734;}.cls-8{fill:url(#linear-gradient-2);}.cls-9{fill:url(#linear-gradient-3);}.cls-10{fill:url(#linear-gradient-4);}.cls-11{fill:url(#linear-gradient-5);}.cls-12{fill:url(#linear-gradient-6);}.cls-13{fill:url(#linear-gradient-7);}.cls-14{fill:url(#linear-gradient-8);}.cls-15{fill:#4db9e9;}.cls-16{fill:url(#linear-gradient-9);}.cls-17{fill:url(#linear-gradient-10);}.cls-18{fill:url(#linear-gradient-11);}</style><clipPath id="clip-path"><path class="cls-1" d="M122.15,23.94c-93.67,28.59-86.84,97.39-87.81,99.81l87.81-15,87.82,15C209,121.33,215.82,52.53,122.15,23.94Z"/></clipPath><radialGradient id="radial-gradient" cx="64.03" cy="64.03" r="64.03" gradientUnits="userSpaceOnUse"><stop offset="0" stop-color="#fff"/><stop offset="0.46" stop-color="#828282"/><stop offset="0.83" stop-color="#252525"/><stop offset="1"/></radialGradient><linearGradient id="linear-gradient" x1="77.76" y1="-12.24" x2="132.64" y2="146.32" gradientUnits="userSpaceOnUse"><stop offset="0.02" stop-color="#4db9e9"/><stop offset="1" stop-color="#2d60ac"/></linearGradient><linearGradient id="linear-gradient-2" x1="102.48" y1="48.27" x2="141.97" y2="180.76" xlink:href="#linear-gradient"/><linearGradient id="linear-gradient-3" x1="96.63" y1="53.07" x2="40.26" y2="158.17" gradientUnits="userSpaceOnUse"><stop offset="0.02" stop-color="#4db9e9"/><stop offset="1" stop-color="#2d51ac"/></linearGradient><linearGradient id="linear-gradient-4" x1="29.29" y1="180.69" x2="122.15" y2="180.69" gradientUnits="userSpaceOnUse"><stop offset="0" stop-color="#4db9e9"/><stop offset="0.62" stop-color="#2d60ac"/></linearGradient><linearGradient id="linear-gradient-5" x1="122.15" y1="180.69" x2="215.01" y2="180.69" xlink:href="#linear-gradient"/><linearGradient id="linear-gradient-6" x1="148.8" y1="213.02" x2="198.45" y2="213.02" xlink:href="#linear-gradient"/><linearGradient id="linear-gradient-7" x1="79.64" y1="111.42" x2="122.15" y2="111.42" xlink:href="#linear-gradient-3"/><linearGradient id="linear-gradient-8" x1="81.47" y1="58.74" x2="114.58" y2="58.74" xlink:href="#linear-gradient"/><linearGradient id="linear-gradient-9" x1="32.52" y1="132.63" x2="50.04" y2="132.63" xlink:href="#linear-gradient"/><linearGradient id="linear-gradient-10" x1="57.27" y1="181.08" x2="79.56" y2="320.57" xlink:href="#linear-gradient-3"/><linearGradient id="linear-gradient-11" x1="-1702.05" y1="213.02" x2="-1652.4" y2="213.02" gradientTransform="matrix(-1, 0, 0, 1, -1606.71, 0)" xlink:href="#linear-gradient"/></defs><title>Asset 7logo</title><g class="cls-2"><g id="Layer_2" data-name="Layer 2"><g id="LOGO"><path class="cls-3" d="M229.05,90.85h17.06q17.06,0,23.1,1.32a15.91,15.91,0,0,1,9.84,6.73q3.81,5.4,3.81,17.26,0,10.82-2.69,14.54t-10.59,4.46q7.16,1.78,9.62,4.75a14.23,14.23,0,0,1,3.06,5.47q.6,2.49.6,13.71v24.45H260.48v-30.8c0-5-.4-8-1.18-9.22s-2.83-1.77-6.15-1.77v41.79h-24.1Zm24.1,15.86v20.61q4.07,0,5.7-1.12c1.08-.74,1.63-3.15,1.63-7.24v-5.09q0-4.41-1.58-5.78T253.15,106.71Z"/><path class="cls-3" d="M347.26,145.12q0,14-.66,19.78a22.16,22.16,0,0,1-13.48,18,34.2,34.2,0,0,1-13.74,2.57A34.92,34.92,0,0,1,306,183.05a22.31,22.31,0,0,1-13.83-17.89,194.85,194.85,0,0,1-.69-20V129.27q0-14,.66-19.78a22.16,22.16,0,0,1,13.48-18,34.23,34.23,0,0,1,13.74-2.57,35,35,0,0,1,13.37,2.43,22.31,22.31,0,0,1,13.83,17.89,198.86,198.86,0,0,1,.68,20Zm-24.1-30.45q0-6.47-.71-8.27a2.85,2.85,0,0,0-2.95-1.81,3.29,3.29,0,0,0-2.89,1.46q-1,1.47-1,8.62V158c0,5.38.21,8.7.65,10a2.88,2.88,0,0,0,3.07,1.89,3,3,0,0,0,3.14-2.18q.69-2.18.69-10.36Z"/><path class="cls-3" d="M430.61,90.85v92.69H409.55l0-62.57-8.39,62.57H386.19l-8.84-61.14,0,61.14H356.25V90.85h31.18q1.4,8.37,2.87,19.71l3.42,23.57,5.54-43.28Z"/><path class="cls-3" d="M482,90.85l13.78,92.69H471.1l-1.29-16.66h-8.62l-1.45,16.66H434.82l12.3-92.69Zm-12.77,59.6q-1.83-15.75-3.68-38.93-3.67,26.63-4.62,38.93Z"/><path class="cls-3" d="M243.74,230.72a21,21,0,0,1-5.69-.69,12,12,0,0,1-4.1-2,8.63,8.63,0,0,1-2.54-3.08,10.75,10.75,0,0,1-1-4.07h2.32a9.06,9.06,0,0,0,1.32,3.61,7.48,7.48,0,0,0,2.4,2.29,10,10,0,0,0,3.24,1.21,20.73,20.73,0,0,0,3.88.35,15.32,15.32,0,0,0,3.86-.45,9.29,9.29,0,0,0,2.93-1.32,6.19,6.19,0,0,0,1.87-2.09,5.77,5.77,0,0,0,.64-2.74,5.86,5.86,0,0,0-.56-2.72,5,5,0,0,0-1.87-1.92,14.78,14.78,0,0,0-3.48-1.47q-2.16-.65-5.36-1.32A28.94,28.94,0,0,1,237,213a11.78,11.78,0,0,1-3.12-1.78,6.25,6.25,0,0,1-1.82-2.32,7.2,7.2,0,0,1-.59-3,7.43,7.43,0,0,1,.79-3.43,7.77,7.77,0,0,1,2.25-2.67A10.66,10.66,0,0,1,238,198a15.23,15.23,0,0,1,4.51-.62,16.9,16.9,0,0,1,4.52.57,11.52,11.52,0,0,1,3.59,1.66,8.73,8.73,0,0,1,3.72,6.17h-2.26a7.77,7.77,0,0,0-1.06-2.41,6.9,6.9,0,0,0-1.89-1.92,9.49,9.49,0,0,0-2.76-1.27,13.58,13.58,0,0,0-3.66-.45q-4.31,0-6.53,1.58a5.07,5.07,0,0,0-2.22,4.35,5.36,5.36,0,0,0,.42,2.2,4.22,4.22,0,0,0,1.39,1.69,9.39,9.39,0,0,0,2.6,1.32,30.59,30.59,0,0,0,4,1.07l2.91.62c1,.21,2,.47,2.92.76a17.43,17.43,0,0,1,2.71,1.09,9,9,0,0,1,2.25,1.58,7.46,7.46,0,0,1,1.53,2.25,7.68,7.68,0,0,1,.57,3.09,8.24,8.24,0,0,1-.87,3.78,9,9,0,0,1-2.41,3,11.26,11.26,0,0,1-3.67,1.94A14.87,14.87,0,0,1,243.74,230.72Z"/><path class="cls-3" d="M276,197.4a15.54,15.54,0,0,1,6.08,1.17,13.77,13.77,0,0,1,4.8,3.35,15.47,15.47,0,0,1,3.14,5.23,19.3,19.3,0,0,1,1.13,6.81,20,20,0,0,1-1.11,6.81,16,16,0,0,1-3.13,5.3,14,14,0,0,1-4.78,3.43,16,16,0,0,1-12.26,0,14,14,0,0,1-4.8-3.42,15.78,15.78,0,0,1-3.13-5.28A20.11,20.11,0,0,1,260.8,214a19.4,19.4,0,0,1,1.13-6.84,15,15,0,0,1,3.15-5.21,14.07,14.07,0,0,1,4.8-3.34A15.52,15.52,0,0,1,276,197.4Zm0,31a13.44,13.44,0,0,0,5.09-1,11.25,11.25,0,0,0,4-2.81,13,13,0,0,0,2.64-4.53,18.64,18.64,0,0,0,.94-6.12,17.85,17.85,0,0,0-1-6.11,12.68,12.68,0,0,0-2.64-4.45,11.1,11.1,0,0,0-4-2.73,14.34,14.34,0,0,0-10.16,0,11.23,11.23,0,0,0-4,2.74,12.7,12.7,0,0,0-2.65,4.45,17.76,17.76,0,0,0-1,6.08,18.64,18.64,0,0,0,.94,6.12,12.94,12.94,0,0,0,2.63,4.53,11,11,0,0,0,4,2.81A13.5,13.5,0,0,0,276,228.37Z"/><path class="cls-3" d="M316.93,230.13H298V198h2.35v29.79h16.59Z"/><path class="cls-3" d="M335.57,230.72a17.6,17.6,0,0,1-4.92-.6,10.49,10.49,0,0,1-3.39-1.63,8.14,8.14,0,0,1-2.14-2.41,12.22,12.22,0,0,1-1.21-2.94,16.9,16.9,0,0,1-.51-3.22c-.07-1.12-.1-2.21-.1-3.26V198h2.35v18.58a22.18,22.18,0,0,0,.66,6,8.23,8.23,0,0,0,1.93,3.6,6.6,6.6,0,0,0,3.12,1.76,17.14,17.14,0,0,0,4.21.47,17.71,17.71,0,0,0,4.27-.47,6.32,6.32,0,0,0,3.11-1.77,8.38,8.38,0,0,0,1.9-3.6,22.61,22.61,0,0,0,.64-6V198h2.35v18.67a28,28,0,0,1-.56,5.93,10.94,10.94,0,0,1-1.93,4.42,8.76,8.76,0,0,1-3.76,2.76A16.45,16.45,0,0,1,335.57,230.72Z"/><path class="cls-3" d="M378.34,200.33H367.1v29.8h-2.35v-29.8H353.62V198h24.72Z"/><path class="cls-3" d="M387.47,230.13h-2.35V198h2.35Z"/><path class="cls-3" d="M410.4,197.4a15.58,15.58,0,0,1,6.08,1.17,13.77,13.77,0,0,1,4.8,3.35,15.63,15.63,0,0,1,3.14,5.23,19.53,19.53,0,0,1,1.13,6.81,19.78,19.78,0,0,1-1.12,6.81,15.78,15.78,0,0,1-3.12,5.3,14,14,0,0,1-4.79,3.43,16,16,0,0,1-12.26,0,14.14,14.14,0,0,1-4.8-3.42,15.59,15.59,0,0,1-3.12-5.28,19.87,19.87,0,0,1-1.12-6.84,19.63,19.63,0,0,1,1.13-6.84,15.22,15.22,0,0,1,3.16-5.21,14.07,14.07,0,0,1,4.8-3.34A15.52,15.52,0,0,1,410.4,197.4Zm0,31a13.41,13.41,0,0,0,5.09-1,11.08,11.08,0,0,0,4-2.81,12.66,12.66,0,0,0,2.64-4.53,18.38,18.38,0,0,0,.94-6.12,18.11,18.11,0,0,0-.95-6.11,13,13,0,0,0-2.64-4.45,11.14,11.14,0,0,0-4-2.73,14.31,14.31,0,0,0-10.15,0,11.15,11.15,0,0,0-4,2.74,12.72,12.72,0,0,0-2.66,4.45,18,18,0,0,0-.95,6.08,18.38,18.38,0,0,0,.94,6.12,12.79,12.79,0,0,0,2.63,4.53,10.92,10.92,0,0,0,4,2.81A13.41,13.41,0,0,0,410.37,228.37Z"/><path class="cls-3" d="M457.11,230.13H454l-19.62-29.36v29.36h-2.34V198h3.23l19.46,29.29V198h2.35Z"/><path class="cls-3" d="M477.07,230.72a21,21,0,0,1-5.69-.69,12,12,0,0,1-4.1-2,8.63,8.63,0,0,1-2.54-3.08,10.75,10.75,0,0,1-1-4.07H466a9.06,9.06,0,0,0,1.32,3.61,7.48,7.48,0,0,0,2.4,2.29A10,10,0,0,0,473,228a20.73,20.73,0,0,0,3.88.35,15.32,15.32,0,0,0,3.86-.45,9.29,9.29,0,0,0,2.93-1.32,6.19,6.19,0,0,0,1.87-2.09,5.77,5.77,0,0,0,.64-2.74,5.86,5.86,0,0,0-.56-2.72,5,5,0,0,0-1.87-1.92,14.78,14.78,0,0,0-3.48-1.47q-2.16-.65-5.36-1.32a28.94,28.94,0,0,1-4.54-1.35,11.78,11.78,0,0,1-3.12-1.78,6.25,6.25,0,0,1-1.82-2.32,7.2,7.2,0,0,1-.59-3,7.43,7.43,0,0,1,.79-3.43,7.77,7.77,0,0,1,2.25-2.67,10.66,10.66,0,0,1,3.49-1.73,15.23,15.23,0,0,1,4.51-.62,16.9,16.9,0,0,1,4.52.57,11.52,11.52,0,0,1,3.59,1.66,8.73,8.73,0,0,1,3.72,6.17h-2.26a7.77,7.77,0,0,0-1.06-2.41,6.9,6.9,0,0,0-1.89-1.92,9.49,9.49,0,0,0-2.76-1.27,13.58,13.58,0,0,0-3.66-.45q-4.31,0-6.53,1.58a5.07,5.07,0,0,0-2.22,4.35,5.36,5.36,0,0,0,.42,2.2,4.22,4.22,0,0,0,1.39,1.69,9.53,9.53,0,0,0,2.6,1.32,30.59,30.59,0,0,0,4,1.07l2.91.62c1,.21,2,.47,2.92.76a17.43,17.43,0,0,1,2.71,1.09,9,9,0,0,1,2.25,1.58,7.46,7.46,0,0,1,1.53,2.25,7.68,7.68,0,0,1,.57,3.09,8.24,8.24,0,0,1-.87,3.78,9,9,0,0,1-2.41,3,11.26,11.26,0,0,1-3.67,1.94A14.87,14.87,0,0,1,477.07,230.72Z"/><g class="cls-4"><circle class="cls-5" cx="64.03" cy="64.03" r="64.03"/></g><path class="cls-6" d="M122.15,23.94c-93.67,28.59-86.84,97.39-87.81,99.81l87.81-15,87.82,15C209,121.33,215.82,52.53,122.15,23.94Z"/><path class="cls-7" d="M80.81,258.66s38.11-19.82,85.38,0L199.73,134.4,40.4,127.54,61.75,244.18Z"/><path class="cls-8" d="M122.15,33.35C40.76,58.19,46.7,118,45.85,120.07l76.3-13,76.3,13C197.6,118,203.54,58.19,122.15,33.35Z"/><path class="cls-7" d="M202.34,125.38s-2.26-70.17-76.17-91c0,0,20.61,13.39,15.57,31.71s-27.15,32.93-98,56.2l79.84,14.61Z"/><path class="cls-9" d="M86.81,49.2c-44.16,28.24-40.26,69.14-41,70.87l44.58-7.61C66.71,84.22,76.59,61.74,86.81,49.2Z"/><path class="cls-10" d="M122.15,222.79,106,194.2l8.08-44.41-63.8-11.91L63.2,166.75l23,13.59L95.5,289.11s-41.18-22.23-54.91-49.69l-4-64.6.8-12.92-8.07-44.41s78.33-9.69,92.86-45.22Z"/><path class="cls-11" d="M122.15,222.79,138.3,194.2l-8.07-44.41L194,137.88,181.1,166.75l-23,13.59L148.8,289.11s41.18-22.23,54.91-49.69l4-64.6-.81-12.92L215,117.49s-78.32-9.69-92.86-45.22Z"/><path class="cls-7" d="M209.6,121.65l-2.55,10.51L146.54,142s19.43-8.6,14-32.49Z"/><path class="cls-12" d="M194,137.88,181.1,166.75l-23,13.59L148.8,289.11s1.73-.94,4.59-2.65l9.71-104,20.7-12.11,14.65-33.43Z"/><path class="cls-13" d="M79.64,104.93c8-.84,17.6-.63,19.76,4.77,2.73,6.82.83,24.33-9.67,35.54l24.35,4.55-.15.78c3-.45,5.85-.88,8.22-1.29v-77C115.94,87.46,98.07,97.92,79.64,104.93Z"/><path class="cls-14" d="M87.94,52.85S78.86,65.27,82.2,75.78c0,0,20.07-24.84,30.1-31.53S96.54,45.21,87.94,52.85Z"/><path class="cls-15" d="M202.27,165s-3.18,66.88-6.37,75.16-37.26,36.63-37.26,36.63l4.78-47.46s21,24.21,37.58-61.78"/><path class="cls-7" d="M202.59,169.42s-5.09,59.24-9.23,68.15S159,276.43,159,276.43s31.85-23.25,37.58-37.58S202.59,169.42,202.59,169.42Z"/><path class="cls-7" d="M202.35,113.76a40.45,40.45,0,0,0,5.86.84s-2.11-18.11-9.12-30.54c0,0,.32,6.22-3.66,5.42,0,0,6,12.1,7,24.84"/><path class="cls-16" d="M50,117.19l-17.52,2.86,6,28S33.48,120.37,50,117.19Z"/><path class="cls-17" d="M37.05,166.87l-.49,7.95,4,64.6c13.73,27.46,54.91,49.69,54.91,49.69l-5.75-67.44C62.38,215.1,45.53,186.35,37.05,166.87Z"/><path class="cls-18" d="M50.12,137.88,63,166.75l23,13.59,9.29,108.77s-1.73-.94-4.59-2.65L81,182.48l-20.7-12.11L45.69,136.94Z"/><path class="cls-15" d="M40.17,165s3.18,66.88,6.36,75.16S83.8,276.75,83.8,276.75L79,229.29S58,253.5,41.44,167.51"/></g></g></g></svg>